<svg width="1395" height="638" viewBox="0 0 1395 638" fill="none" xmlns="http://www.w3.org/2000/svg">
<path d="M203.12 340.436V291.998L324.569 100.663H366.33V167.708H341.614L265.052 288.873V291.146H437.637V340.436H203.12ZM342.751 391.572V325.663L343.887 304.214V100.663H401.557V391.572H342.751Z" fill="white"/>
<path fill-rule="evenodd" clip-rule="evenodd" d="M646.331 77.0169C627.774 82.3021 601.181 95.0415 601.474 98.5056C601.561 99.5351 602.133 103.184 602.745 106.615C607.77 134.811 581.355 161.336 552.831 156.737C549.257 156.161 545.5 155.612 544.482 155.519C542.19 155.307 536.56 164.852 530.186 179.756C526.103 189.302 520.841 205.347 520.841 208.248C520.841 208.91 522.648 210.467 524.856 211.707C530.935 215.123 538.502 223.379 541.809 230.203C549.97 247.042 547.194 266.127 534.654 279.382C531.746 282.456 527.448 286.096 525.103 287.469C522.162 289.192 520.846 290.635 520.856 292.121C520.902 298.946 538.083 340.221 542.352 343.764C543.323 344.569 544.759 344.585 547.515 343.82C553.962 342.031 566.189 342.513 573.066 344.829C585.912 349.156 596.493 359.668 600.903 372.486C603.174 379.083 603.6 391.096 601.802 397.773C600.763 401.629 600.838 402.27 602.475 403.537C606.422 406.593 630.794 417.671 639.804 420.502C655.607 425.468 654.828 425.506 658.299 419.593C666.67 405.327 685.732 396.592 702.299 399.429C715.554 401.699 728.666 410.56 734.267 421.036C736.057 424.383 736.562 424.696 739.266 424.139C747.756 422.389 765.723 415.586 777.262 409.75C787.811 404.415 790.215 402.804 790.028 401.198C789.901 400.11 789.312 396.228 788.717 392.571C785.351 371.874 798.608 351.137 819.596 344.272C824.599 342.636 834.426 342.522 846.741 343.957C849.027 344.223 849.84 343.058 856.286 330.256C862.943 317.035 868.755 301.783 870.256 293.595C870.903 290.065 870.768 289.835 866.889 287.856C857.33 282.982 848.2 270.133 845.684 258.019C842.262 241.541 850.413 222.249 864.624 213.188C867.962 211.061 870.702 208.698 870.713 207.937C870.725 207.177 868.692 200.43 866.198 192.945C860.571 176.062 849.992 155.266 847.158 155.519C846.104 155.612 842.317 156.161 838.743 156.737C809.275 161.488 783.004 134.081 789.031 104.874C790.457 97.9599 790.448 97.2773 788.918 96.0749C785.023 93.0135 762.436 82.6809 752.77 79.5386C735.927 74.0615 736.775 74.0415 733.276 80.0033C722.274 98.7515 696.792 106.031 676.223 96.3028C669.318 93.0365 660.826 85.2986 657.717 79.4396C656.389 76.937 654.853 74.922 654.302 74.961C653.751 75 650.164 75.9255 646.331 77.0169ZM720.683 129.841C725.853 130.901 730.431 132.125 730.855 132.563C731.703 133.436 720.696 156.93 713.859 168.841C708.353 178.434 696.457 196.785 695.73 196.808C695.01 196.831 684.277 180.444 678.879 171.082C672.697 160.36 659.793 133.676 660.353 132.772C660.974 131.766 673.492 128.978 682.4 127.859C692.02 126.651 709.54 127.558 720.683 129.841ZM643.765 151.1C651.836 165.311 664.616 184.041 675.614 197.772L685.578 210.212L681.436 215.131L677.293 220.051L656.799 199.117C645.528 187.603 631.864 173.382 626.435 167.515C618.019 158.418 616.754 156.621 617.844 155.308C619.337 153.51 636.561 141.855 637.726 141.855C638.16 141.855 640.877 146.015 643.765 151.1ZM763.403 147.773C768.344 151.027 772.978 154.401 773.698 155.27C775.197 157.074 769.524 163.449 734.132 199.735L714.236 220.134L709.987 215.061L705.738 209.987L711.066 203.657C723.422 188.972 740.421 164.432 749.2 148.601C751.258 144.89 753.274 141.855 753.68 141.855C754.086 141.855 758.461 144.517 763.403 147.773ZM634.806 201.428C647.177 213.096 659.224 224.622 661.578 227.043L665.856 231.445L661.02 235.522L656.182 239.6L646.244 231.633C628.639 217.522 611.937 206.278 588.873 193.009C587.169 192.03 589.557 187.481 597.272 177.005L601.933 170.676L607.122 175.444C609.977 178.067 622.435 189.76 634.806 201.428ZM798.267 182.921C800.701 186.544 802.951 190.179 803.266 190.998C803.679 192.077 801.261 193.947 794.549 197.74C780.608 205.618 761.771 218.478 747.803 229.653L735.34 239.626L730.413 235.502L725.486 231.377L740.529 216.731C748.802 208.675 763.152 195.039 772.415 186.428L789.259 170.771L791.549 173.554C792.81 175.085 795.832 179.3 798.267 182.921ZM609.671 229.07C615.916 232.446 625.979 238.427 632.033 242.362L643.04 249.516L639.672 252.071C632.402 257.587 613.504 268.443 597.317 276.404C587.97 281.001 579.83 284.766 579.227 284.771C577.774 284.783 574.959 271.703 573.803 259.563C572.523 246.134 574.547 226.208 578.32 215.103C578.805 213.675 592.379 219.723 609.671 229.07ZM815.403 223.312C818.018 234.628 818.037 264.934 815.437 276.014C814.44 280.264 813.191 284.008 812.662 284.335C810.091 285.924 748.85 252.807 748.798 249.798C748.748 246.915 811.052 212.643 812.85 214.564C813.237 214.978 814.386 218.914 815.403 223.312ZM700.168 226.061L703.714 230.308L699.751 234.291L695.787 238.275L691.57 234.059L687.352 229.842L691.273 225.827C693.429 223.619 695.514 221.813 695.907 221.813C696.3 221.813 698.217 223.724 700.168 226.061ZM680.308 245.816L684.229 249.831L680.114 253.945L675.999 258.058L671.648 253.989L667.296 249.919L671.248 245.861C673.421 243.628 675.466 241.802 675.793 241.802C676.12 241.802 678.152 243.608 680.308 245.816ZM723.438 249.056C723.827 249.684 722.209 251.814 719.706 253.969L715.289 257.772L711.317 253.802L707.346 249.831L711.224 245.86L715.102 241.889L718.927 244.917C721.03 246.583 723.06 248.445 723.438 249.056ZM650.067 283.821C641.288 292.364 626.993 306.033 618.3 314.195L602.494 329.037L599.642 325.649C598.073 323.785 594.678 318.924 592.097 314.846C588.277 308.811 587.675 307.277 588.862 306.594C613.47 292.43 628.936 282.026 646.223 268.005L656.14 259.962L661.085 264.125L666.028 268.288L650.067 283.821ZM752.27 273.467C764.413 282.919 784.171 296.214 795.757 302.728C799.88 305.047 803.424 307.112 803.633 307.318C804.116 307.795 791.049 327.459 789.691 328.298C788.623 328.958 773.35 314.915 743.481 285.802L725.558 268.334L730.376 264.156L735.194 259.976L738.234 262.442C739.906 263.797 746.222 268.758 752.27 273.467ZM700.021 265.54L703.66 269.288L699.731 273.786L695.803 278.283L691.678 273.948L687.555 269.613L691.374 265.703C693.475 263.552 695.46 261.792 695.787 261.792C696.114 261.792 698.019 263.479 700.021 265.54ZM682.671 292.775C668.044 310.472 651.382 334.42 642.861 349.995C640.531 354.255 638.294 357.741 637.89 357.741C636.825 357.741 619.389 346.149 618.088 344.577C616.868 343.102 624.063 334.994 658.117 299.468L677.09 279.674L681.327 284.476L685.563 289.277L682.671 292.775ZM756.91 324.259L774.742 343.249L772.003 345.539C768.496 348.472 756.56 356.501 754.573 357.263C753.461 357.69 751.648 355.359 747.795 348.548C739.856 334.512 726.958 315.597 715.882 301.747L705.962 289.342L710.098 284.404L714.234 279.466L726.655 292.367C733.488 299.463 747.102 313.814 756.91 324.259ZM702.061 312.015C705.031 316.55 709.397 323.596 711.762 327.674C716.768 336.301 730.737 364.725 730.761 366.333C730.782 367.785 717.701 370.598 705.544 371.757C690.276 373.211 660.798 369.52 660.798 366.153C660.798 364.134 677.107 331.933 683.281 321.76C690.852 309.287 694.683 303.77 695.772 303.77C696.261 303.77 699.091 307.481 702.061 312.015Z" fill="#D3A60D"/>
<path d="M907.12 340.436V291.998L1028.57 100.663H1070.33V167.708H1045.61L969.052 288.873V291.146H1141.64V340.436H907.12ZM1046.75 391.572V325.663L1047.89 304.214V100.663H1105.56V391.572H1046.75Z" fill="white"/>
<path d="M288.505 151.539C288.356 145.992 287.168 140.391 284.59 135.519C283.294 133.104 281.58 130.877 279.325 129.379C277.071 127.921 274.277 127.314 271.658 127.746C269.026 128.164 266.691 129.743 265.071 131.849C264.248 132.901 263.613 134.089 263.168 135.33C262.736 136.572 262.493 137.922 262.682 139.15C262.776 139.757 262.992 140.324 263.357 140.702C263.532 140.904 263.748 141.026 263.991 141.133C264.099 141.201 264.248 141.201 264.383 141.241C264.518 141.268 264.599 141.228 264.707 141.241C265.624 141.066 266.529 139.851 267.136 138.731C268.419 136.383 269.148 133.697 269.647 131.012C270.605 125.641 270.551 119.986 268.878 114.79C268.027 112.212 266.772 109.756 264.963 107.732C263.168 105.721 260.981 104.061 258.43 103.035C257.228 102.374 255.892 102.05 254.596 101.632C253.948 101.375 253.26 101.375 252.585 101.227C251.91 101.133 251.235 100.944 250.56 100.957C247.82 100.714 245.066 101.119 242.407 101.767C237.075 103.184 232.134 106.045 227.95 109.702C229.921 107.718 232.175 106.045 234.564 104.587C236.967 103.157 239.518 101.915 242.231 101.133C244.945 100.404 247.779 99.9314 250.614 100.12C251.329 100.08 252.018 100.269 252.733 100.35C253.435 100.485 254.151 100.485 254.826 100.728C256.189 101.133 257.593 101.443 258.862 102.104C261.521 103.089 263.951 104.844 265.854 106.976C267.798 109.108 269.134 111.713 270.052 114.412C271.847 119.851 271.942 125.695 270.983 131.268C270.443 134.048 269.674 136.815 268.27 139.366C267.919 140 267.501 140.621 267.001 141.201C266.475 141.741 265.854 142.335 264.882 142.497C264.369 142.551 263.937 142.456 263.546 142.294C263.141 142.132 262.763 141.889 262.466 141.565C261.858 140.931 261.588 140.121 261.467 139.352C261.251 137.814 261.561 136.329 262.034 134.953C262.533 133.576 263.235 132.294 264.14 131.147C265.908 128.852 268.567 127.125 271.483 126.747C274.372 126.342 277.395 127.071 279.771 128.704C282.147 130.364 283.888 132.726 285.143 135.236C286.399 137.773 287.222 140.472 287.776 143.225C288.343 145.951 288.599 148.759 288.505 151.539Z" fill="white"/>
<path d="M237.305 120.215C239.384 111.673 234.146 103.062 225.601 100.984C217.057 98.9057 208.445 104.142 206.366 112.685C204.287 121.227 209.525 129.838 218.069 131.916C226.6 133.994 235.226 128.758 237.305 120.215ZM229.057 118.204C228.085 122.199 224.063 124.642 220.081 123.67C216.085 122.698 213.642 118.677 214.614 114.682C215.586 110.687 219.608 108.245 223.604 109.216C227.586 110.202 230.029 114.21 229.057 118.204Z" fill="white"/>
<path d="M221.187 131.997L215.248 130.553L214.546 134.831L219.837 136.127L221.187 131.997Z" fill="white"/>
<path d="M210.361 127.233L207.176 122.01L203.653 124.547L206.474 129.19L210.361 127.233Z" fill="white"/>
<path d="M206.069 116.207L207.513 110.256L203.221 109.567L201.938 114.858L206.069 116.207Z" fill="white"/>
<path d="M210.834 105.37L216.058 102.199L213.52 98.6628L208.863 101.497L210.834 105.37Z" fill="white"/>
<path d="M221.862 101.079L227.802 102.536L228.504 98.2444L223.212 96.9489L221.862 101.079Z" fill="white"/>
<path d="M232.688 105.842L235.874 111.079L239.397 108.528L236.576 103.886L232.688 105.842Z" fill="white"/>
<path d="M236.981 116.868L235.536 122.82L239.829 123.522L241.111 118.231L236.981 116.868Z" fill="white"/>
<path d="M232.216 127.705L226.992 130.89L229.529 134.413L234.186 131.579L232.216 127.705Z" fill="white"/>
<path d="M216.868 119.365L221.646 121.983L226.303 119.149L226.182 113.71L221.417 111.092L216.76 113.913L216.868 119.365ZM221.93 114.858C222.861 115.087 223.428 116.018 223.198 116.936C222.969 117.854 222.038 118.434 221.12 118.204C220.202 117.975 219.621 117.044 219.851 116.126C220.067 115.208 221.012 114.642 221.93 114.858Z" fill="white"/>
<path d="M586.365 396.996L594.316 384.189L590.388 381.76C589.241 381.044 588.606 379.735 588.728 378.386C588.795 377.643 588.822 376.888 588.795 376.132C588.768 374.782 589.47 373.514 590.671 372.879L594.734 370.693L587.607 357.4L583.544 359.586C582.356 360.221 580.912 360.113 579.805 359.343C579.184 358.911 578.55 358.52 577.888 358.156C576.7 357.508 575.958 356.266 575.998 354.903L576.147 350.288L561.082 349.815L560.947 354.444C560.907 355.807 560.07 356.982 558.842 357.562C558.504 357.724 558.18 357.886 557.856 358.061C557.532 358.237 557.208 358.426 556.898 358.615C555.737 359.316 554.306 359.357 553.159 358.642L549.204 356.199L541.253 369.006L545.181 371.449C546.329 372.164 546.963 373.473 546.841 374.823C546.774 375.565 546.747 376.321 546.774 377.063C546.801 378.413 546.099 379.668 544.898 380.315L540.835 382.502L547.962 395.795L552.025 393.609C553.213 392.974 554.657 393.082 555.764 393.852C556.385 394.283 557.019 394.675 557.681 395.026C558.869 395.673 559.611 396.915 559.571 398.278L559.422 402.907L574.487 403.379L574.635 398.75C574.676 397.401 575.512 396.227 576.727 395.646C577.065 395.485 577.389 395.323 577.726 395.147C578.05 394.972 578.374 394.783 578.685 394.594C579.846 393.892 581.29 393.852 582.451 394.567L586.365 396.996ZM573.609 387.482C567.602 390.707 560.124 388.453 556.898 382.434C553.672 376.429 555.926 368.939 561.933 365.713C567.94 362.488 575.432 364.755 578.658 370.761C581.884 376.78 579.616 384.256 573.609 387.482Z" fill="#EBEBEB"/>
<path d="M1122.49 281.395C1121.57 278.197 1121.44 274.782 1121.96 271.476C1122.48 268.17 1123.6 264.931 1125.43 262.083C1127.23 259.235 1129.75 256.766 1132.79 255.2C1135.81 253.621 1139.27 252.933 1142.67 253.041C1146.09 253.135 1149.43 254.013 1152.51 255.416C1155.59 256.847 1158.46 258.777 1160.71 261.422C1161.77 262.758 1162.8 264.31 1162.86 266.267C1162.89 267.225 1162.5 268.264 1161.81 268.966C1161.12 269.627 1160.38 270.153 1159.44 270.423C1158.5 270.707 1157.48 270.639 1156.59 270.302C1155.7 269.964 1154.95 269.411 1154.29 268.804C1153 267.576 1152.08 266.078 1151.32 264.539C1149.83 261.449 1149.03 258.115 1148.65 254.755C1148.27 251.395 1148.38 247.98 1148.96 244.647C1150.1 237.993 1153.52 231.57 1158.98 227.467C1161.69 225.443 1164.73 223.81 1168.02 222.973C1171.29 222.082 1174.73 221.92 1178.05 222.325C1181.39 222.743 1184.62 223.702 1187.69 225.024C1190.75 226.347 1193.68 227.993 1196.31 230.018C1190.83 226.306 1184.53 223.648 1177.97 223C1174.7 222.662 1171.38 222.892 1168.25 223.81C1165.09 224.673 1162.2 226.306 1159.64 228.304C1157.1 230.341 1154.94 232.838 1153.36 235.672C1151.77 238.506 1150.73 241.637 1150.18 244.849C1149.12 251.26 1149.8 258.075 1152.51 263.945C1153.21 265.389 1154.06 266.78 1155.18 267.846C1156.28 268.912 1157.72 269.614 1159.07 269.182C1159.73 269.006 1160.39 268.547 1160.89 268.075C1161.37 267.589 1161.62 266.955 1161.61 266.253C1161.6 264.836 1160.73 263.392 1159.75 262.178C1157.71 259.721 1154.94 257.832 1152.01 256.469C1149.07 255.106 1145.86 254.269 1142.62 254.121C1139.38 253.972 1136.1 254.593 1133.21 256.037C1130.31 257.454 1127.84 259.748 1126.04 262.474C1122.42 267.913 1121.02 274.904 1122.49 281.395Z" fill="white"/>
<path d="M1203.59 225.969C1200.94 225.132 1198.12 226.603 1197.29 229.248C1196.45 231.893 1197.92 234.714 1200.57 235.551C1203.21 236.387 1206.03 234.916 1206.86 232.271C1207.71 229.613 1206.24 226.792 1203.59 225.969ZM1206.29 232.082C1205.56 234.404 1203.08 235.699 1200.75 234.97C1198.43 234.242 1197.14 231.758 1197.88 229.437C1198.61 227.116 1201.09 225.82 1203.41 226.563C1205.72 227.278 1207.02 229.761 1206.29 232.082ZM1203.59 225.969C1200.94 225.132 1198.12 226.603 1197.29 229.248C1196.45 231.893 1197.92 234.714 1200.57 235.551C1203.21 236.387 1206.03 234.916 1206.86 232.271C1207.71 229.613 1206.24 226.792 1203.59 225.969ZM1206.29 232.082C1205.56 234.404 1203.08 235.699 1200.75 234.97C1198.43 234.242 1197.14 231.758 1197.88 229.437C1198.61 227.116 1201.09 225.82 1203.41 226.563C1205.72 227.278 1207.02 229.761 1206.29 232.082ZM1203.59 225.969C1200.94 225.132 1198.12 226.603 1197.29 229.248C1196.45 231.893 1197.92 234.714 1200.57 235.551C1203.21 236.387 1206.03 234.916 1206.86 232.271C1207.71 229.613 1206.24 226.792 1203.59 225.969ZM1206.29 232.082C1205.56 234.404 1203.08 235.699 1200.75 234.97C1198.43 234.242 1197.14 231.758 1197.88 229.437C1198.61 227.116 1201.09 225.82 1203.41 226.563C1205.72 227.278 1207.02 229.761 1206.29 232.082ZM1205.26 220.665C1199.69 218.911 1193.74 222.001 1191.98 227.575C1190.23 233.149 1193.32 239.1 1198.89 240.855C1204.47 242.609 1210.41 239.518 1212.17 233.945C1213.93 228.358 1210.84 222.42 1205.26 220.665ZM1207.61 232.501C1206.65 235.551 1203.39 237.251 1200.34 236.293C1197.29 235.335 1195.59 232.069 1196.54 229.019C1197.5 225.969 1200.77 224.268 1203.82 225.227C1206.87 226.185 1208.57 229.451 1207.61 232.501ZM1206.87 232.258C1207.71 229.613 1206.24 226.792 1203.59 225.955C1200.94 225.119 1198.12 226.59 1197.29 229.235C1196.45 231.88 1197.92 234.701 1200.57 235.537C1203.21 236.374 1206.03 234.903 1206.87 232.258ZM1206.29 232.082C1205.56 234.404 1203.08 235.699 1200.75 234.97C1198.43 234.242 1197.14 231.758 1197.88 229.437C1198.61 227.116 1201.09 225.82 1203.41 226.563C1205.72 227.278 1207.02 229.761 1206.29 232.082ZM1203.59 225.969C1200.94 225.132 1198.12 226.603 1197.29 229.248C1196.45 231.893 1197.92 234.714 1200.57 235.551C1203.21 236.387 1206.03 234.916 1206.86 232.271C1207.71 229.613 1206.24 226.792 1203.59 225.969ZM1206.29 232.082C1205.56 234.404 1203.08 235.699 1200.75 234.97C1198.43 234.242 1197.14 231.758 1197.88 229.437C1198.61 227.116 1201.09 225.82 1203.41 226.563C1205.72 227.278 1207.02 229.761 1206.29 232.082ZM1203.59 225.969C1200.94 225.132 1198.12 226.603 1197.29 229.248C1196.45 231.893 1197.92 234.714 1200.57 235.551C1203.21 236.387 1206.03 234.916 1206.86 232.271C1207.71 229.613 1206.24 226.792 1203.59 225.969ZM1206.29 232.082C1205.56 234.404 1203.08 235.699 1200.75 234.97C1198.43 234.242 1197.14 231.758 1197.88 229.437C1198.61 227.116 1201.09 225.82 1203.41 226.563C1205.72 227.278 1207.02 229.761 1206.29 232.082Z" fill="white"/>
<path d="M1200.97 241.043L1197.08 239.815L1196.44 242.636L1199.89 243.716L1200.97 241.043Z" fill="white"/>
<path d="M1193.99 237.4L1192.12 233.796L1189.66 235.321L1191.33 238.533L1193.99 237.4Z" fill="white"/>
<path d="M1191.63 229.896L1192.86 226.023L1190.04 225.375L1188.94 228.816L1191.63 229.896Z" fill="white"/>
<path d="M1195.26 222.919L1198.88 221.043L1197.34 218.6L1194.14 220.26L1195.26 222.919Z" fill="white"/>
<path d="M1202.77 220.557L1206.65 221.785L1207.3 218.965L1203.85 217.885L1202.77 220.557Z" fill="white"/>
<path d="M1209.75 224.201L1211.63 227.804L1214.08 226.279L1212.4 223.067L1209.75 224.201Z" fill="white"/>
<path d="M1212.11 231.704L1210.89 235.578L1213.7 236.239L1214.79 232.784L1212.11 231.704Z" fill="white"/>
<path d="M1208.48 238.682L1204.86 240.558L1206.4 243.014L1209.61 241.34L1208.48 238.682Z" fill="white"/>
<path d="M832.256 115.833L826.978 106.683L824.184 108.303C823.361 108.775 822.348 108.735 821.552 108.208C821.106 107.925 820.661 107.655 820.188 107.412C819.338 106.98 818.798 106.13 818.798 105.185V101.946H808.229V105.185C808.229 106.13 807.689 106.98 806.838 107.412C806.366 107.655 805.907 107.911 805.475 108.208C804.679 108.721 803.666 108.775 802.843 108.303L800.049 106.683L794.771 115.833L797.578 117.453C798.402 117.925 798.861 118.829 798.807 119.787C798.793 120.044 798.793 120.3 798.793 120.57C798.793 120.827 798.793 121.083 798.807 121.353C798.861 122.298 798.402 123.202 797.578 123.674L794.757 125.307L800.035 134.457L802.843 132.838C803.666 132.365 804.679 132.406 805.475 132.932C805.907 133.216 806.366 133.486 806.838 133.715C807.689 134.147 808.229 134.997 808.229 135.942V139.181H818.798V135.942C818.798 134.997 819.338 134.147 820.188 133.715C820.661 133.472 821.106 133.216 821.552 132.932C822.348 132.406 823.361 132.365 824.184 132.838L826.992 134.457L832.27 125.307L829.462 123.688C828.639 123.215 828.193 122.311 828.234 121.366C828.247 121.11 828.247 120.84 828.247 120.584C828.247 120.327 828.247 120.071 828.234 119.801C828.18 118.856 828.639 117.952 829.462 117.466L832.256 115.833ZM822.159 120.57C822.159 125.348 818.285 129.221 813.507 129.221C808.728 129.221 804.854 125.348 804.854 120.57C804.854 115.793 808.728 111.92 813.507 111.92C818.299 111.906 822.159 115.793 822.159 120.57Z" fill="#EBEBEB"/>
<path d="M627.829 515.457L607.811 515.835L597.673 515.983C594.285 516.051 590.884 516.037 587.482 516.064H586.888V515.457L586.821 498.412V497.737H587.495L607.676 497.818C614.398 497.832 621.134 497.967 627.856 498.034H628.234V498.399C628.207 501.287 628.113 504.161 628.059 507.009L627.829 515.457ZM627.829 515.457L627.64 506.847C627.573 504.013 627.492 501.192 627.465 498.399L627.829 498.763C621.107 498.83 614.371 498.979 607.649 498.979L587.468 499.06L588.143 498.385L588.076 515.43L587.468 514.823C590.803 514.85 594.123 514.836 597.457 514.904L607.487 515.052L627.829 515.457Z" fill="#EBEBEB"/>
<path d="M639.826 491.47L619.807 491.848L609.67 491.996C606.282 492.064 602.88 492.05 599.478 492.077H598.884V491.47L598.817 474.425V473.75H599.492L619.672 473.831C626.395 473.844 633.13 473.979 639.853 474.047H640.231V474.411C640.204 477.299 640.109 480.174 640.055 483.021L639.826 491.47ZM639.826 491.47L639.637 482.86C639.569 480.025 639.488 477.205 639.461 474.411L639.826 474.776C633.103 474.843 626.368 474.992 619.645 474.992L599.465 475.073L600.14 474.398L600.072 491.443L599.465 490.835C602.799 490.862 606.12 490.849 609.454 490.903L619.483 491.051L639.826 491.47Z" fill="#EBEBEB"/>
<path d="M221.953 521.454L201.935 521.832L191.798 521.98C188.409 522.048 185.008 522.034 181.606 522.061H181.012V521.454L180.945 504.409V503.734H181.62L201.8 503.815C208.522 503.829 215.258 503.964 221.98 504.031H222.358V504.395C222.331 507.283 222.237 510.158 222.183 513.006L221.953 521.454ZM221.953 521.454L221.764 512.844C221.697 510.01 221.616 507.189 221.589 504.395L221.953 504.76C215.231 504.827 208.495 504.976 201.773 504.976L181.593 505.057L182.268 504.382L182.2 521.427L181.593 520.82C184.927 520.847 188.247 520.833 191.582 520.901L201.611 521.049L221.953 521.454Z" fill="#EBEBEB"/>
<path d="M844.742 578.827C901.61 578.827 947.71 572.309 947.71 564.268C947.71 556.228 901.61 549.71 844.742 549.71C787.874 549.71 741.773 556.228 741.773 564.268C741.773 572.309 787.874 578.827 844.742 578.827Z" fill="#EBEBEB" fill-opacity="0.8"/>
<path d="M856.254 469.257H827.31V471.629H856.254V469.257Z" fill="#37474F"/>
<path d="M856.254 472.346H827.31V474.717H856.254V472.346Z" fill="#37474F"/>
<path d="M856.254 475.435H827.31V477.806H856.254V475.435Z" fill="#37474F"/>
<path d="M856.254 478.523H827.31V480.894H856.254V478.523Z" fill="#37474F"/>
<path d="M856.254 481.612H827.31V483.983H856.254V481.612Z" fill="#37474F"/>
<path d="M868.791 543.212H813.755V545.583H868.791V543.212Z" fill="#37474F"/>
<path d="M868.791 546.301H813.755V548.672H868.791V546.301Z" fill="#37474F"/>
<path d="M868.791 549.389H813.755V551.76H868.791V549.389Z" fill="#37474F"/>
<path d="M868.791 552.478H813.755V554.849H868.791V552.478Z" fill="#37474F"/>
<path d="M868.791 555.566H813.755V557.938H868.791V555.566Z" fill="#37474F"/>
<path d="M599.817 525.261L663.052 525.79L726.275 525.989L852.745 526.364L979.204 525.989L1042.44 525.812L1105.66 525.261L1042.44 524.731L979.204 524.533L852.745 524.157L726.275 524.533L663.052 524.731L599.817 525.261Z" fill="white"/>
<path d="M789.611 449.658C789.635 449.341 777.564 445.299 777.564 445.299L778.273 403.827L794.282 400.396L789.611 449.658Z" fill="#FFC727"/>
<path opacity="0.2" d="M789.611 449.658C789.635 449.341 777.564 445.299 777.564 445.299L778.273 403.827L794.282 400.396L789.611 449.658Z" fill="black"/>
<path d="M900.188 465.941C900.27 465.631 913.002 465.99 913.002 465.99L926.606 426.808L912.757 418.08L900.188 465.941Z" fill="#FFC727"/>
<path opacity="0.2" d="M900.188 465.941C900.27 465.631 913.002 465.99 913.002 465.99L926.606 426.808L912.757 418.08L900.188 465.941Z" fill="black"/>
<path d="M787.288 464.93C787.288 464.93 791.763 397.862 795.692 375.802C795.692 375.802 876.73 381.93 920.476 398.644C920.476 398.644 897.922 476.983 896.757 480.87C896.749 480.87 839.683 469.632 787.288 464.93Z" fill="#FFC727"/>
<path opacity="0.1" d="M859.621 384.758C858.3 392.834 856.971 400.91 855.594 408.969L851.421 433.156L851.192 432.814L878.344 439.26L891.907 442.544L905.454 445.894L891.834 442.846L878.229 439.733L851.054 433.384L850.777 433.319L850.826 433.042L855.154 408.88C856.605 400.844 858.104 392.801 859.621 384.758Z" fill="black"/>
<path opacity="0.1" d="M856.638 389.362C856.655 390.104 856.059 390.862 855.211 390.935C854.804 390.976 854.355 390.845 854.021 390.552C853.687 390.258 853.483 389.81 853.483 389.362C853.483 388.906 853.687 388.458 854.021 388.172C854.355 387.879 854.804 387.749 855.211 387.789C856.068 387.863 856.655 388.62 856.638 389.362ZM856.638 389.362C856.638 388.987 856.467 388.62 856.19 388.384C855.913 388.148 855.546 388.05 855.211 388.091C854.527 388.172 854.086 388.783 854.094 389.362C854.086 389.941 854.527 390.552 855.211 390.633C855.546 390.674 855.913 390.576 856.19 390.34C856.475 390.104 856.638 389.737 856.638 389.362Z" fill="black"/>
<path opacity="0.1" d="M855.22 399.337C855.236 400.078 854.641 400.836 853.793 400.91C853.385 400.95 852.937 400.82 852.603 400.527C852.268 400.233 852.064 399.785 852.064 399.337C852.064 398.88 852.268 398.432 852.603 398.147C852.937 397.854 853.385 397.723 853.793 397.764C854.641 397.837 855.236 398.603 855.22 399.337ZM855.22 399.337C855.22 398.962 855.049 398.595 854.771 398.359C854.494 398.123 854.127 398.025 853.793 398.066C853.108 398.147 852.668 398.758 852.676 399.337C852.668 399.915 853.108 400.527 853.793 400.608C854.127 400.649 854.494 400.551 854.771 400.315C855.049 400.078 855.212 399.712 855.22 399.337Z" fill="black"/>
<path opacity="0.1" d="M853.467 409.882C853.484 410.624 852.889 411.381 852.041 411.455C851.633 411.496 851.184 411.365 850.85 411.072C850.516 410.778 850.312 410.33 850.312 409.882C850.312 409.434 850.516 408.977 850.85 408.692C851.184 408.399 851.633 408.268 852.041 408.309C852.889 408.383 853.484 409.149 853.467 409.882ZM853.467 409.882C853.467 409.507 853.296 409.14 853.019 408.904C852.742 408.668 852.375 408.57 852.041 408.611C851.356 408.692 850.915 409.303 850.924 409.882C850.915 410.461 851.356 411.072 852.041 411.153C852.375 411.194 852.742 411.096 853.019 410.86C853.296 410.624 853.459 410.257 853.467 409.882Z" fill="black"/>
<path opacity="0.1" d="M851.715 420.427C851.732 421.168 851.136 421.926 850.288 422C849.881 422.04 849.432 421.91 849.098 421.617C848.764 421.323 848.56 420.875 848.56 420.427C848.56 419.979 848.764 419.522 849.098 419.237C849.432 418.944 849.881 418.813 850.288 418.854C851.136 418.927 851.732 419.685 851.715 420.427ZM851.715 420.427C851.715 420.052 851.544 419.685 851.267 419.449C850.99 419.213 850.623 419.115 850.288 419.156C849.603 419.237 849.163 419.848 849.171 420.427C849.163 421.006 849.603 421.617 850.288 421.698C850.623 421.739 850.99 421.641 851.267 421.405C851.544 421.168 851.707 420.802 851.715 420.427Z" fill="black"/>
<path opacity="0.1" d="M857.682 437.247C857.698 437.989 857.103 438.747 856.255 438.82C855.847 438.861 855.399 438.73 855.064 438.437C854.73 438.144 854.526 437.695 854.526 437.247C854.526 436.791 854.73 436.343 855.064 436.057C855.399 435.764 855.847 435.634 856.255 435.674C857.111 435.739 857.698 436.506 857.682 437.247ZM857.682 437.247C857.682 436.872 857.51 436.506 857.233 436.269C856.956 436.033 856.589 435.935 856.255 435.976C855.57 436.057 855.129 436.668 855.138 437.247C855.129 437.826 855.57 438.437 856.255 438.518C856.589 438.559 856.956 438.461 857.233 438.225C857.518 437.981 857.682 437.614 857.682 437.247Z" fill="black"/>
<path opacity="0.1" d="M867.642 439.676C867.659 440.417 867.063 441.175 866.215 441.248C865.808 441.289 865.359 441.159 865.025 440.865C864.691 440.572 864.487 440.124 864.487 439.676C864.487 439.219 864.691 438.771 865.025 438.486C865.359 438.192 865.808 438.062 866.215 438.103C867.063 438.168 867.65 438.934 867.642 439.676ZM867.642 439.676C867.642 439.301 867.471 438.934 867.194 438.698C866.917 438.461 866.55 438.364 866.215 438.404C865.53 438.486 865.09 439.097 865.098 439.676C865.09 440.254 865.53 440.865 866.215 440.947C866.55 440.988 866.917 440.89 867.194 440.653C867.471 440.409 867.634 440.042 867.642 439.676Z" fill="black"/>
<path opacity="0.1" d="M877.595 442.104C877.611 442.846 877.016 443.603 876.168 443.677C875.76 443.718 875.312 443.587 874.977 443.294C874.643 443 874.439 442.552 874.439 442.104C874.439 441.648 874.643 441.199 874.977 440.914C875.312 440.621 875.76 440.49 876.168 440.531C877.016 440.596 877.611 441.362 877.595 442.104ZM877.595 442.104C877.595 441.729 877.423 441.362 877.146 441.126C876.869 440.89 876.502 440.792 876.168 440.833C875.483 440.914 875.043 441.525 875.051 442.104C875.043 442.683 875.483 443.294 876.168 443.375C876.502 443.416 876.869 443.318 877.146 443.082C877.423 442.837 877.595 442.471 877.595 442.104Z" fill="black"/>
<path opacity="0.1" d="M887.547 444.524C887.563 445.266 886.968 446.024 886.12 446.097C885.712 446.138 885.264 446.008 884.93 445.714C884.595 445.421 884.392 444.973 884.392 444.524C884.392 444.068 884.595 443.62 884.93 443.335C885.264 443.041 885.712 442.911 886.12 442.952C886.976 443.025 887.563 443.791 887.547 444.524ZM887.547 444.524C887.547 444.15 887.376 443.783 887.099 443.547C886.821 443.31 886.454 443.212 886.12 443.253C885.435 443.335 884.995 443.946 885.003 444.524C884.995 445.103 885.435 445.714 886.12 445.796C886.454 445.836 886.821 445.739 887.099 445.502C887.384 445.266 887.547 444.899 887.547 444.524Z" fill="black"/>
<path opacity="0.1" d="M897.5 447.067C897.459 447.809 896.807 448.518 895.959 448.526C895.543 448.534 895.111 448.371 894.801 448.053C894.491 447.735 894.328 447.279 894.361 446.823C894.401 446.374 894.63 445.942 894.988 445.673C895.347 445.405 895.804 445.315 896.211 445.38C897.043 445.527 897.573 446.325 897.5 447.067ZM897.5 447.067C897.524 446.692 897.386 446.317 897.133 446.056C896.872 445.804 896.513 445.673 896.179 445.69C895.494 445.714 895.005 446.293 894.964 446.871C894.907 447.442 895.306 448.094 895.983 448.224C896.309 448.289 896.684 448.216 896.978 448.004C897.28 447.792 897.467 447.434 897.5 447.067Z" fill="black"/>
<path opacity="0.1" d="M849.963 430.972C849.979 431.714 849.384 432.472 848.536 432.545C848.128 432.586 847.68 432.455 847.345 432.162C847.011 431.869 846.807 431.42 846.807 430.972C846.807 430.524 847.011 430.068 847.345 429.782C847.68 429.489 848.128 429.359 848.536 429.399C849.384 429.473 849.979 430.231 849.963 430.972ZM849.963 430.972C849.963 430.597 849.791 430.231 849.514 429.994C849.237 429.758 848.87 429.66 848.536 429.701C847.851 429.782 847.41 430.394 847.419 430.972C847.41 431.551 847.851 432.162 848.536 432.243C848.87 432.284 849.237 432.186 849.514 431.95C849.791 431.714 849.954 431.347 849.963 430.972Z" fill="black"/>
<path opacity="0.2" d="M833.199 448.438C842.65 439.944 843.423 425.401 834.925 415.955C826.427 406.508 811.876 405.735 802.424 414.229C792.973 422.722 792.201 437.266 800.699 446.712C809.197 456.159 823.748 456.931 833.199 448.438Z" fill="black"/>
<path d="M835.058 437.866C838.666 428.337 833.864 417.688 824.333 414.081C814.801 410.474 804.15 415.274 800.542 424.804C796.934 434.333 801.736 444.982 811.267 448.589C820.799 452.197 831.45 447.396 835.058 437.866Z" fill="#263238"/>
<path d="M816.692 424.552L812.379 423.854L811.681 428.166L815.993 428.864L816.692 424.552Z" fill="#FFC727"/>
<path d="M813.081 419.542L808.768 418.843L808.07 423.155L812.383 423.854L813.081 419.542Z" fill="#FFC727"/>
<path d="M830.337 422.336L826.024 421.637L825.325 425.949L829.638 426.648L830.337 422.336Z" fill="#FFC727"/>
<path d="M810.302 436.695L805.99 435.997L805.291 440.308L809.604 441.007L810.302 436.695Z" fill="#FFC727"/>
<path d="M827.557 439.49L823.245 438.791L822.546 443.103L826.859 443.801L827.557 439.49Z" fill="#FFC727"/>
<path d="M815.314 433.085L811.001 432.387L810.303 436.698L814.615 437.397L815.314 433.085Z" fill="#FFC727"/>
<path d="M820.319 429.516L816.007 428.817L815.308 433.129L819.621 433.827L820.319 429.516Z" fill="#FFC727"/>
<path d="M825.323 425.954L821.01 425.256L820.312 429.568L824.625 430.266L825.323 425.954Z" fill="#FFC727"/>
<path d="M823.942 434.476L819.63 433.777L818.931 438.089L823.244 438.787L823.942 434.476Z" fill="#FFC727"/>
<path d="M897.374 455.546C905.43 445.719 903.991 431.227 894.159 423.175C884.328 415.124 869.828 416.563 861.772 426.39C853.716 436.216 855.155 450.709 864.986 458.76C874.817 466.812 889.318 465.372 897.374 455.546Z" fill="#FFC727"/>
<path opacity="0.2" d="M897.374 455.546C905.43 445.719 903.991 431.227 894.159 423.175C884.328 415.124 869.828 416.563 861.772 426.39C853.716 436.216 855.155 450.709 864.986 458.76C874.817 466.812 889.318 465.372 897.374 455.546Z" fill="black"/>
<path opacity="0.2" d="M901.957 446.301C901.851 446.757 901.729 447.189 901.598 447.629L856.743 438.062C856.849 437.263 856.996 436.465 857.183 435.65C860.118 423.287 872.524 415.651 884.897 418.585C897.246 421.527 904.892 433.93 901.957 446.301Z" fill="black"/>
<path d="M886.678 458.005C896.082 454.077 900.521 443.271 896.592 433.869C892.663 424.467 881.854 420.03 872.45 423.958C863.046 427.886 858.608 438.692 862.537 448.094C866.466 457.496 877.274 461.933 886.678 458.005Z" fill="#263238"/>
<path d="M884.21 430.896L879.959 429.886L874.932 451.047L879.183 452.058L884.21 430.896Z" fill="#FFC727"/>
<path d="M903.286 445.869L856.173 434.672C859.262 421.666 872.32 413.63 885.329 416.719C898.338 419.816 906.383 432.863 903.286 445.869Z" fill="#FFC727"/>
<path opacity="0.2" d="M903.286 445.869L856.173 434.672C859.262 421.666 872.32 413.63 885.329 416.719C898.338 419.816 906.383 432.863 903.286 445.869Z" fill="black"/>
<path opacity="0.1" d="M839.528 454.654C839.65 452.812 840.327 450.946 841.656 449.471C842.316 448.729 843.188 448.143 844.158 447.792C845.128 447.434 846.179 447.368 847.174 447.458C848.185 447.58 849.22 447.931 850.067 448.575C850.899 449.226 851.526 450.074 851.901 450.995C852.668 452.82 852.757 454.768 852.382 456.577C852.073 454.768 851.608 453.016 850.76 451.573C849.921 450.123 848.584 449.218 847.003 449.08C845.381 448.876 843.807 449.316 842.536 450.384C841.256 451.451 840.286 452.983 839.528 454.654Z" fill="black"/>
<path d="M793.589 407.73C793.776 405.269 794.053 402.825 794.29 400.372C794.551 397.927 794.82 395.474 795.121 393.037C795.407 390.593 795.724 388.156 796.034 385.711C796.344 383.266 796.694 380.838 797.02 378.393L797.11 377.741L797.77 377.782C803.077 378.116 808.375 378.548 813.665 379.086C816.314 379.355 818.955 379.664 821.588 380.007C824.221 380.382 826.862 380.732 829.478 381.213L813.567 380.227L797.673 379.2L798.422 378.589C798.064 381.025 797.73 383.462 797.347 385.89C796.972 388.319 796.597 390.756 796.197 393.184C795.806 395.613 795.39 398.041 794.958 400.461C794.502 402.882 794.086 405.31 793.589 407.73Z" fill="white"/>
<path d="M797.42 426.319C797.958 423.361 799.294 420.549 801.104 418.096C801.552 417.477 802.066 416.907 802.555 416.32C803.085 415.774 803.639 415.236 804.185 414.698C804.78 414.217 805.383 413.737 805.995 413.272C806.647 412.856 807.282 412.433 807.943 412.033C808.636 411.699 809.328 411.357 810.029 411.039L812.214 410.281L814.48 409.817C815.238 409.703 816.012 409.678 816.77 409.621C819.835 409.54 822.859 410.2 825.631 411.316C822.68 410.762 819.737 410.461 816.844 410.738C813.95 411.007 811.146 411.87 808.636 413.288C806.101 414.666 803.867 416.572 801.968 418.789C800.085 421.014 798.52 423.532 797.42 426.319Z" fill="white"/>
<path d="M860.892 432.537C861.829 429.685 863.549 427.077 865.677 424.901C866.207 424.355 866.793 423.858 867.356 423.345C867.959 422.872 868.579 422.424 869.198 421.967C869.858 421.568 870.518 421.177 871.187 420.802C871.888 420.484 872.581 420.15 873.29 419.848C874.023 419.612 874.757 419.368 875.499 419.148L877.765 418.699L880.072 418.553C880.838 418.545 881.604 418.634 882.37 418.683C885.419 419.025 888.32 420.093 890.912 421.584C888.068 420.631 885.199 419.922 882.289 419.791C879.387 419.661 876.485 420.126 873.803 421.185C871.105 422.204 868.619 423.785 866.443 425.708C864.267 427.647 862.376 429.929 860.892 432.537Z" fill="white"/>
<path d="M789.864 506.263C783.971 506.263 771.067 504.935 762.762 494.259C752.141 480.601 755.98 454.401 756.143 453.285L760.756 453.986C760.716 454.238 757.056 479.322 766.446 491.391C775.624 503.191 792.277 501.496 792.448 501.48L792.969 506.117C792.782 506.141 791.641 506.263 789.864 506.263Z" fill="#FFC727"/>
<path opacity="0.4" d="M789.864 506.263C783.971 506.263 771.067 504.935 762.762 494.259C752.141 480.601 755.98 454.401 756.143 453.285L760.756 453.986C760.716 454.238 757.056 479.322 766.446 491.391C775.624 503.191 792.277 501.496 792.448 501.48L792.969 506.117C792.782 506.141 791.641 506.263 789.864 506.263Z" fill="white"/>
<path d="M762.11 457.164C761.27 457.164 760.406 457.091 759.534 456.952C751.75 455.689 748.31 451.036 746.786 447.352C745.261 443.661 744.911 439.195 745.742 434.077L755.613 435.674C755.1 438.844 755.246 441.632 756.037 443.538C756.599 444.891 757.684 446.521 761.14 447.083C762.721 447.336 764.424 447.206 766.218 444.508C767.595 442.43 768.427 439.594 768.72 437.801L778.591 439.399C778.363 440.808 777.393 445.747 774.556 450.033C771.451 454.695 767.106 457.164 762.11 457.164Z" fill="#FFC727"/>
<path d="M799.613 519.612C799.596 519.4 791.25 518.063 791.25 518.063L787.198 490.837L797.306 486.844L799.613 519.612Z" fill="#FFC727"/>
<path opacity="0.2" d="M799.613 519.612C799.596 519.4 791.25 518.063 791.25 518.063L787.198 490.837L797.306 486.844L799.613 519.612Z" fill="black"/>
<path d="M882.093 519.661C882.118 519.449 890.489 518.3 890.489 518.3L895.143 491.171L885.125 486.958L882.093 519.661Z" fill="#FFC727"/>
<path opacity="0.2" d="M882.093 519.661C882.118 519.449 890.489 518.3 890.489 518.3L895.143 491.171L885.125 486.958L882.093 519.661Z" fill="black"/>
<path d="M796.14 480.756C796.14 480.756 863.623 477.871 886.414 481.669C886.414 481.669 879.722 546.953 879.355 548.216C879.355 548.216 812.231 548.036 801.74 548.216C801.74 548.216 796.051 504.805 796.14 480.756Z" fill="#FFC727"/>
<path opacity="0.2" d="M816.632 498.644C816.632 498.644 853.467 497.193 865.913 499.108C865.913 499.108 862.262 532.023 862.058 532.667C862.058 532.667 825.411 532.577 819.689 532.667C819.689 532.659 817.178 510.134 816.632 498.644Z" fill="black"/>
<path opacity="0.2" d="M821.669 532.651C820.83 532.651 820.153 532.659 819.689 532.667C819.689 532.667 817.178 510.134 816.632 498.644C816.632 498.644 817.472 498.611 818.931 498.562L821.669 532.651Z" fill="black"/>
<path d="M832.535 506.769C830.473 506.117 828.272 507.266 827.62 509.327C826.968 511.397 828.117 513.59 830.179 514.241C832.242 514.893 834.442 513.744 835.086 511.683C835.747 509.621 834.597 507.421 832.535 506.769ZM834.638 511.536C834.068 513.353 832.136 514.356 830.326 513.785C828.517 513.215 827.506 511.283 828.076 509.466C828.647 507.657 830.579 506.646 832.397 507.217C834.206 507.795 835.209 509.727 834.638 511.536ZM832.535 506.769C830.473 506.117 828.272 507.266 827.62 509.327C826.968 511.397 828.117 513.59 830.179 514.241C832.242 514.893 834.442 513.744 835.086 511.683C835.747 509.621 834.597 507.421 832.535 506.769ZM834.638 511.536C834.068 513.353 832.136 514.356 830.326 513.785C828.517 513.215 827.506 511.283 828.076 509.466C828.647 507.657 830.579 506.646 832.397 507.217C834.206 507.795 835.209 509.727 834.638 511.536ZM832.535 506.769C830.473 506.117 828.272 507.266 827.62 509.327C826.968 511.397 828.117 513.59 830.179 514.241C832.242 514.893 834.442 513.744 835.086 511.683C835.747 509.621 834.597 507.421 832.535 506.769ZM834.638 511.536C834.068 513.353 832.136 514.356 830.326 513.785C828.517 513.215 827.506 511.283 828.076 509.466C828.647 507.657 830.579 506.646 832.397 507.217C834.206 507.795 835.209 509.727 834.638 511.536ZM833.839 502.629C829.487 501.26 824.849 503.68 823.479 508.024C822.11 512.375 824.523 517.012 828.875 518.381C833.22 519.75 837.866 517.338 839.235 512.986C840.605 508.635 838.192 503.998 833.839 502.629ZM835.673 511.862C834.923 514.241 832.38 515.57 829.992 514.82C827.612 514.07 826.283 511.528 827.033 509.14C827.783 506.76 830.334 505.432 832.714 506.182C835.095 506.94 836.423 509.482 835.673 511.862ZM835.095 511.683C835.747 509.621 834.597 507.421 832.535 506.769C830.473 506.117 828.272 507.266 827.62 509.327C826.968 511.397 828.117 513.59 830.179 514.241C832.242 514.893 834.442 513.744 835.095 511.683ZM834.638 511.536C834.068 513.353 832.136 514.356 830.326 513.785C828.517 513.215 827.506 511.283 828.076 509.466C828.647 507.657 830.579 506.646 832.397 507.217C834.206 507.795 835.209 509.727 834.638 511.536ZM832.535 506.769C830.473 506.117 828.272 507.266 827.62 509.327C826.968 511.397 828.117 513.59 830.179 514.241C832.242 514.893 834.442 513.744 835.086 511.683C835.747 509.621 834.597 507.421 832.535 506.769ZM834.638 511.536C834.068 513.353 832.136 514.356 830.326 513.785C828.517 513.215 827.506 511.283 828.076 509.466C828.647 507.657 830.579 506.646 832.397 507.217C834.206 507.795 835.209 509.727 834.638 511.536ZM832.535 506.769C830.473 506.117 828.272 507.266 827.62 509.327C826.968 511.397 828.117 513.59 830.179 514.241C832.242 514.893 834.442 513.744 835.086 511.683C835.747 509.621 834.597 507.421 832.535 506.769ZM834.638 511.536C834.068 513.353 832.136 514.356 830.326 513.785C828.517 513.215 827.506 511.283 828.076 509.466C828.647 507.657 830.579 506.646 832.397 507.217C834.206 507.795 835.209 509.727 834.638 511.536Z" fill="#FFC727"/>
<path d="M830.489 518.528L827.465 517.574L826.959 519.767L829.649 520.622L830.489 518.528Z" fill="#FFC727"/>
<path d="M825.053 515.692L823.585 512.88L821.67 514.07L822.974 516.572L825.053 515.692Z" fill="#FFC727"/>
<path d="M823.211 509.841L824.165 506.809L821.963 506.304L821.115 508.993L823.211 509.841Z" fill="#FFC727"/>
<path d="M826.047 504.397L828.859 502.93L827.669 501.015L825.158 502.327L826.047 504.397Z" fill="#FFC727"/>
<path d="M831.899 502.555L834.923 503.509L835.437 501.317L832.739 500.461L831.899 502.555Z" fill="#FFC727"/>
<path d="M837.344 505.391L838.811 508.211L840.719 507.013L839.415 504.511L837.344 505.391Z" fill="#FFC727"/>
<path d="M839.187 511.243L838.233 514.274L840.426 514.779L841.274 512.09L839.187 511.243Z" fill="#FFC727"/>
<path d="M836.35 516.686L833.53 518.153L834.728 520.068L837.23 518.764L836.35 516.686Z" fill="#FFC727"/>
<path d="M845.854 518.292C844.631 517.493 843.001 517.843 842.202 519.066C841.403 520.288 841.754 521.918 842.976 522.717C844.199 523.515 845.829 523.165 846.628 521.942C847.419 520.72 847.076 519.082 845.854 518.292ZM846.359 521.763C845.658 522.839 844.223 523.14 843.156 522.44C842.08 521.739 841.778 520.304 842.479 519.237C843.18 518.161 844.615 517.86 845.682 518.561C846.75 519.261 847.052 520.688 846.359 521.763ZM845.854 518.292C844.631 517.493 843.001 517.843 842.202 519.066C841.403 520.288 841.754 521.918 842.976 522.717C844.199 523.515 845.829 523.165 846.628 521.942C847.419 520.72 847.076 519.082 845.854 518.292ZM846.359 521.763C845.658 522.839 844.223 523.14 843.156 522.44C842.08 521.739 841.778 520.304 842.479 519.237C843.18 518.161 844.615 517.86 845.682 518.561C846.75 519.261 847.052 520.688 846.359 521.763ZM845.854 518.292C844.631 517.493 843.001 517.843 842.202 519.066C841.403 520.288 841.754 521.918 842.976 522.717C844.199 523.515 845.829 523.165 846.628 521.942C847.419 520.72 847.076 519.082 845.854 518.292ZM846.359 521.763C845.658 522.839 844.223 523.14 843.156 522.44C842.08 521.739 841.778 520.304 842.479 519.237C843.18 518.161 844.615 517.86 845.682 518.561C846.75 519.261 847.052 520.688 846.359 521.763ZM847.451 515.839C844.875 514.16 841.436 514.893 839.757 517.46C838.086 520.036 838.811 523.475 841.379 525.153C843.946 526.824 847.394 526.099 849.073 523.523C850.744 520.965 850.019 517.517 847.451 515.839ZM846.97 522.163C846.049 523.572 844.158 523.972 842.756 523.059C841.346 522.146 840.947 520.247 841.868 518.846C842.789 517.436 844.68 517.037 846.082 517.957C847.484 518.862 847.883 520.753 846.97 522.163ZM846.628 521.942C847.427 520.72 847.076 519.09 845.862 518.292C844.639 517.493 843.009 517.843 842.21 519.066C841.411 520.288 841.762 521.918 842.984 522.717C844.199 523.507 845.829 523.157 846.628 521.942ZM846.359 521.763C845.658 522.839 844.223 523.14 843.156 522.44C842.08 521.739 841.778 520.304 842.479 519.237C843.18 518.161 844.615 517.86 845.682 518.561C846.75 519.261 847.052 520.688 846.359 521.763ZM845.854 518.292C844.631 517.493 843.001 517.843 842.202 519.066C841.403 520.288 841.754 521.918 842.976 522.717C844.199 523.515 845.829 523.165 846.628 521.942C847.419 520.72 847.076 519.082 845.854 518.292ZM846.359 521.763C845.658 522.839 844.223 523.14 843.156 522.44C842.08 521.739 841.778 520.304 842.479 519.237C843.18 518.161 844.615 517.86 845.682 518.561C846.75 519.261 847.052 520.688 846.359 521.763ZM845.854 518.292C844.631 517.493 843.001 517.843 842.202 519.066C841.403 520.288 841.754 521.918 842.976 522.717C844.199 523.515 845.829 523.165 846.628 521.942C847.419 520.72 847.076 519.082 845.854 518.292ZM846.359 521.763C845.658 522.839 844.223 523.14 843.156 522.44C842.08 521.739 841.778 520.304 842.479 519.237C843.18 518.161 844.615 517.86 845.682 518.561C846.75 519.261 847.052 520.688 846.359 521.763Z" fill="#DBDBDB"/>
<path d="M842.406 525.544L840.613 524.379L839.887 525.716L841.477 526.751L842.406 525.544Z" fill="#DBDBDB"/>
<path d="M839.382 522.725L838.942 520.63L837.49 521.062L837.882 522.92L839.382 522.725Z" fill="#DBDBDB"/>
<path d="M839.252 518.593L840.418 516.8L839.081 516.075L838.045 517.672L839.252 518.593Z" fill="#DBDBDB"/>
<path d="M842.071 515.578L844.167 515.138L843.735 513.679L841.876 514.078L842.071 515.578Z" fill="#DBDBDB"/>
<path d="M846.204 515.439L847.998 516.613L848.724 515.276L847.125 514.241L846.204 515.439Z" fill="#DBDBDB"/>
<path d="M849.22 518.267L849.66 520.353L851.12 519.93L850.728 518.072L849.22 518.267Z" fill="#DBDBDB"/>
<path d="M849.359 522.399L848.193 524.184L849.522 524.909L850.557 523.32L849.359 522.399Z" fill="#DBDBDB"/>
<path d="M846.531 525.414L844.444 525.854L844.868 527.313L846.727 526.914L846.531 525.414Z" fill="#DBDBDB"/>
<path d="M884.783 540.621L887.375 541.101L894.793 490.878L891.842 490.34L884.783 540.621Z" fill="#FFC727"/>
<path d="M862.066 532.659L865.922 499.1L891.842 490.331C891.842 490.331 884.783 541.158 884.783 540.612L862.066 532.659Z" fill="#FFC727"/>
<path opacity="0.4" d="M862.066 532.659L865.922 499.1L891.842 490.331C891.842 490.331 884.783 541.158 884.783 540.612L862.066 532.659Z" fill="white"/>
<path d="M799.238 500.461C798.814 497.682 798.586 494.879 798.414 492.075C798.333 490.674 798.3 489.264 798.268 487.862C798.243 486.461 798.219 485.051 798.26 483.649L798.268 483.282L798.626 483.266C803.778 482.989 808.921 482.655 814.073 482.427C819.224 482.174 824.376 481.938 829.527 481.783C824.392 482.247 819.249 482.647 814.105 483.013C808.962 483.413 803.819 483.706 798.675 484.056L799.042 483.665L799.018 487.862L799.067 492.059C799.075 493.461 799.099 494.862 799.14 496.264L799.238 500.461Z" fill="white"/>
<path d="M869.532 499.597C871.138 498.831 872.768 498.122 874.423 497.47C876.07 496.802 877.732 496.166 879.412 495.588C881.091 495.017 882.778 494.455 884.498 493.974C886.21 493.493 887.938 493.045 889.706 492.76L890.138 492.687L890.057 493.102C889.649 495.278 889.225 497.446 888.72 499.605C888.908 497.397 889.177 495.205 889.462 493.013L889.82 493.355C888.109 493.762 886.413 494.243 884.718 494.74C883.023 495.245 881.335 495.775 879.656 496.329L869.532 499.597Z" fill="white"/>
<path opacity="0.1" d="M810.453 480.895L810.886 489.288L811.261 497.682L811.913 514.478L812.418 531.273L812.622 539.675L812.761 548.077L812.321 539.683L811.945 531.29L811.301 514.494L810.796 497.698L810.592 489.296L810.453 480.895Z" fill="black"/>
<path opacity="0.1" d="M808.05 485.955C808.213 486.681 807.78 487.536 806.965 487.781C806.574 487.903 806.109 487.862 805.718 487.642C805.334 487.422 805.049 487.023 804.959 486.583C804.87 486.143 804.976 485.662 805.253 485.312C805.522 484.961 805.938 484.741 806.345 484.7C807.185 484.594 807.919 485.222 808.05 485.955ZM808.05 485.955C807.976 485.589 807.74 485.263 807.422 485.083C807.104 484.904 806.721 484.888 806.411 484.986C805.758 485.197 805.44 485.89 805.563 486.452C805.669 487.023 806.223 487.536 806.908 487.479C807.242 487.455 807.585 487.284 807.805 486.998C808.033 486.713 808.123 486.322 808.05 485.955Z" fill="black"/>
<path opacity="0.1" d="M808.629 496.02C808.792 496.745 808.36 497.601 807.544 497.845C807.153 497.967 806.688 497.927 806.297 497.707C805.914 497.486 805.628 497.087 805.538 496.647C805.449 496.207 805.555 495.726 805.832 495.376C806.101 495.025 806.517 494.805 806.925 494.765C807.764 494.659 808.498 495.286 808.629 496.02ZM808.629 496.02C808.555 495.653 808.319 495.327 808.001 495.148C807.683 494.968 807.3 494.952 806.99 495.05C806.338 495.262 806.02 495.954 806.142 496.517C806.248 497.087 806.802 497.601 807.487 497.544C807.821 497.511 808.164 497.348 808.384 497.063C808.604 496.778 808.694 496.378 808.629 496.02Z" fill="black"/>
<path opacity="0.1" d="M808.995 506.695C809.158 507.42 808.726 508.276 807.911 508.521C807.52 508.643 807.055 508.602 806.663 508.382C806.28 508.162 805.995 507.763 805.905 507.323C805.815 506.883 805.921 506.402 806.199 506.051C806.468 505.701 806.884 505.481 807.291 505.44C808.131 505.342 808.865 505.97 808.995 506.695ZM808.995 506.695C808.922 506.328 808.686 506.002 808.368 505.823C808.05 505.644 807.666 505.628 807.356 505.725C806.704 505.937 806.386 506.63 806.509 507.192C806.615 507.763 807.169 508.276 807.854 508.219C808.188 508.186 808.531 508.023 808.751 507.738C808.971 507.453 809.061 507.062 808.995 506.695Z" fill="black"/>
<path opacity="0.1" d="M809.362 517.379C809.525 518.104 809.093 518.96 808.277 519.204C807.886 519.326 807.421 519.286 807.03 519.066C806.647 518.846 806.361 518.446 806.272 518.006C806.182 517.566 806.288 517.085 806.557 516.735C806.826 516.385 807.242 516.165 807.65 516.124C808.498 516.018 809.231 516.653 809.362 517.379ZM809.362 517.379C809.289 517.012 809.052 516.686 808.734 516.507C808.416 516.328 808.033 516.311 807.723 516.409C807.071 516.621 806.753 517.314 806.875 517.876C806.981 518.446 807.536 518.96 808.22 518.903C808.555 518.878 808.897 518.707 809.117 518.422C809.337 518.137 809.427 517.745 809.362 517.379Z" fill="black"/>
<path opacity="0.1" d="M809.729 528.063C809.892 528.788 809.46 529.644 808.644 529.888C808.253 530.01 807.788 529.97 807.397 529.749C807.014 529.529 806.728 529.13 806.639 528.69C806.549 528.25 806.655 527.769 806.932 527.419C807.201 527.068 807.617 526.848 808.025 526.808C808.864 526.702 809.598 527.337 809.729 528.063ZM809.729 528.063C809.655 527.696 809.419 527.37 809.101 527.191C808.783 527.011 808.4 526.995 808.09 527.093C807.438 527.305 807.12 527.997 807.242 528.56C807.348 529.13 807.902 529.644 808.587 529.586C808.922 529.562 809.264 529.391 809.484 529.106C809.704 528.82 809.794 528.429 809.729 528.063Z" fill="black"/>
<path opacity="0.1" d="M810.096 538.746C810.259 539.471 809.826 540.327 809.011 540.572C808.62 540.694 808.155 540.653 807.764 540.433C807.38 540.213 807.095 539.814 807.005 539.374C806.916 538.934 807.022 538.453 807.291 538.102C807.56 537.752 807.976 537.532 808.383 537.491C809.231 537.385 809.965 538.021 810.096 538.746ZM810.096 538.746C810.022 538.379 809.786 538.054 809.468 537.874C809.15 537.695 808.767 537.679 808.457 537.776C807.804 537.988 807.486 538.681 807.609 539.243C807.715 539.814 808.269 540.327 808.954 540.27C809.288 540.238 809.631 540.075 809.851 539.789C810.071 539.504 810.161 539.113 810.096 538.746Z" fill="black"/>
<path d="M813.395 555.078L775.188 566.653L776.54 571.114L814.747 559.539L813.395 555.078Z" fill="#FFC727"/>
<path opacity="0.4" d="M813.395 555.078L775.188 566.653L776.54 571.114L814.747 559.539L813.395 555.078Z" fill="white"/>
<path d="M795.109 559.101L790.666 560.513L792.766 567.115L797.209 565.702L795.109 559.101Z" fill="#FFC727"/>
<path d="M776.235 577.659L766.381 534.973L736.621 542.03L751.269 583.624L776.235 577.659Z" fill="#FFC727"/>
<path d="M782.838 575.491L776.236 577.659L766.381 534.973L775.877 537.23L782.838 575.491Z" fill="#FFC727"/>
<path opacity="0.2" d="M782.838 575.491L776.236 577.659L766.381 534.973L775.877 537.23L782.838 575.491Z" fill="black"/>
<path d="M814.089 562.371C816.884 562.371 819.151 560.105 819.151 557.31C819.151 554.515 816.884 552.25 814.089 552.25C811.293 552.25 809.027 554.515 809.027 557.31C809.027 560.105 811.293 562.371 814.089 562.371Z" fill="#FFC727"/>
<path d="M866.209 554.957L864.847 559.415L903.03 571.07L904.392 566.612L866.209 554.957Z" fill="#FFC727"/>
<path opacity="0.4" d="M866.209 554.957L864.847 559.415L903.03 571.07L904.392 566.612L866.209 554.957Z" fill="white"/>
<path d="M884.515 558.998L882.4 565.594L886.84 567.017L888.955 560.421L884.515 558.998Z" fill="#FFC727"/>
<path d="M903.335 577.618L913.288 534.957L943.031 542.071L928.294 583.64L903.335 577.618Z" fill="#FFC727"/>
<path d="M896.741 575.434L903.335 577.618L913.287 534.957L903.783 537.198L896.741 575.434Z" fill="#FFC727"/>
<path opacity="0.2" d="M896.741 575.434L903.335 577.618L913.287 534.957L903.783 537.198L896.741 575.434Z" fill="black"/>
<path d="M860.469 557.18C860.46 559.975 862.726 562.249 865.522 562.257C868.318 562.265 870.592 559.999 870.6 557.204C870.608 554.409 868.342 552.135 865.547 552.127C862.751 552.119 860.477 554.385 860.469 557.18Z" fill="#FFC727"/>
<path d="M898.697 504.536C898.819 504.422 911.086 493.045 925.522 496.932C940.284 500.917 952.478 523.149 952.592 523.369L956.692 521.152C956.162 520.166 943.446 496.932 926.728 492.426C909.725 487.846 896.048 500.6 895.469 501.146L898.697 504.536Z" fill="#FFC727"/>
<path opacity="0.4" d="M898.697 504.536C898.819 504.422 911.086 493.045 925.522 496.932C940.284 500.917 952.478 523.149 952.592 523.369L956.692 521.152C956.162 520.166 943.446 496.932 926.728 492.426C909.725 487.846 896.048 500.6 895.469 501.146L898.697 504.536Z" fill="white"/>
<path d="M947.155 545.754L955.999 541.085C955.151 539.48 954.108 536.717 953.953 534.223C953.757 530.996 955.037 529.855 956.455 529.114C959.553 527.476 961.403 528.128 962.666 528.869C964.435 529.912 966.237 532.056 967.736 534.892L976.58 530.222C974.159 525.642 971.192 522.285 967.753 520.255C964.321 518.234 958.77 516.588 951.793 520.272C946.356 523.14 943.585 528.307 943.984 534.826C944.286 539.96 946.487 544.491 947.155 545.754Z" fill="#FFC727"/>
<path d="M900.564 488.962C902.479 487.642 904.444 486.395 906.408 485.157C908.372 483.91 910.369 482.728 912.366 481.538C914.372 480.365 916.377 479.199 918.423 478.083L921.479 476.412C922.515 475.883 923.533 475.329 924.585 474.815C923.631 475.483 922.653 476.111 921.683 476.755L918.741 478.621C916.776 479.86 914.779 481.049 912.782 482.239C910.777 483.413 908.772 484.578 906.726 485.694C904.688 486.819 902.65 487.927 900.564 488.962Z" fill="#263238"/>
<path d="M895.485 508.032C898.232 509.596 900.832 511.357 903.392 513.174C905.943 515.007 908.462 516.89 910.826 518.976C908.079 517.411 905.479 515.651 902.919 513.834C900.368 512 897.857 510.118 895.485 508.032Z" fill="#263238"/>
<path d="M899.993 505.685C902.112 506.328 904.199 507.054 906.277 507.795C908.364 508.529 910.418 509.319 912.48 510.11C914.534 510.917 916.589 511.731 918.618 512.595L921.658 513.899C922.661 514.364 923.68 514.796 924.674 515.285C923.615 514.967 922.571 514.608 921.52 514.274L918.398 513.182C916.311 512.449 914.257 511.658 912.195 510.868C910.141 510.061 908.087 509.246 906.057 508.382C904.011 507.518 901.982 506.638 899.993 505.685Z" fill="#263238"/>
<path d="M906.009 490.747C908.038 490.217 910.084 489.777 912.13 489.353C914.176 488.922 916.23 488.547 918.292 488.172C920.354 487.821 922.417 487.471 924.487 487.178L927.593 486.746C928.636 486.632 929.671 486.493 930.714 486.403C929.704 486.672 928.677 486.892 927.658 487.145L924.593 487.797C922.547 488.229 920.493 488.604 918.431 488.979C916.369 489.329 914.306 489.679 912.236 489.973C910.166 490.266 908.095 490.551 906.009 490.747Z" fill="#263238"/>
<path d="M843.196 495.666C843.509 494.162 844.015 492.687 844.671 491.295C845.326 489.895 846.123 488.554 847.129 487.363C848.134 486.186 849.378 485.144 850.875 484.57C852.365 484.012 854.078 484.019 855.575 484.615C857.088 485.203 858.287 486.477 858.927 487.944C859.262 488.674 859.471 489.456 859.56 490.26C859.635 491.064 859.605 491.891 859.285 492.695C859.121 493.09 858.868 493.484 858.466 493.752C858.272 493.886 858.026 493.968 857.795 494.006C857.564 494.035 857.326 494.028 857.05 493.939C856.551 493.73 856.305 493.328 856.089 492.963C855.896 492.591 855.747 492.203 855.65 491.816C855.233 490.26 855.188 488.681 855.263 487.117C855.486 484.004 856.305 480.892 857.981 478.211C858.83 476.885 859.888 475.671 861.214 474.778C862.517 473.884 864.044 473.266 865.601 473.087C866.368 472.901 867.158 472.916 867.94 472.879C868.335 472.834 868.722 472.931 869.109 472.953C869.497 473.005 869.892 472.998 870.271 473.11C871.821 473.385 873.273 474.011 874.629 474.763C875.977 475.545 877.184 476.543 878.279 477.622C879.366 478.717 880.357 479.916 881.154 481.234C879.396 478.725 877.124 476.543 874.45 475.076C873.102 474.376 871.679 473.802 870.182 473.571C869.817 473.467 869.43 473.489 869.057 473.445C868.677 473.437 868.305 473.348 867.933 473.4C867.18 473.452 866.421 473.452 865.691 473.646C864.186 473.854 862.793 474.458 861.572 475.299C860.343 476.141 859.344 477.302 858.547 478.568C856.968 481.13 856.194 484.153 856 487.162C855.918 488.666 855.955 490.2 856.328 491.623C856.507 492.308 856.827 493.075 857.296 493.291C857.356 493.298 857.393 493.328 857.467 493.328C857.542 493.32 857.616 493.335 857.691 493.32C857.832 493.298 857.966 493.261 858.086 493.172C858.331 493.015 858.525 492.747 858.652 492.434C858.912 491.801 858.965 491.049 858.898 490.327C858.823 489.597 858.637 488.875 858.339 488.204C857.75 486.864 856.708 485.71 855.352 485.144C854.004 484.57 852.425 484.526 851.032 485.01C849.624 485.516 848.417 486.484 847.404 487.601C845.378 489.873 844.008 492.71 843.196 495.666Z" fill="white"/>
<path d="M774.364 514.968C775.087 513.613 776.137 512.444 777.373 511.513C778.602 510.59 780.025 509.867 781.545 509.517C783.057 509.152 784.688 509.145 786.2 509.607C787.719 510.061 789.083 510.947 790.177 512.079C791.28 513.211 792.099 514.589 792.665 516.048C793.216 517.515 793.552 519.079 793.432 520.688C793.351 521.477 793.194 522.326 792.568 523.011C792.256 523.346 791.779 523.57 791.317 523.577C790.87 523.57 790.446 523.503 790.036 523.287C789.626 523.078 789.299 522.706 789.112 522.304C788.926 521.894 788.852 521.47 788.829 521.053C788.799 520.218 788.978 519.429 789.224 518.67C789.723 517.158 790.542 515.802 791.503 514.566C792.464 513.338 793.604 512.235 794.877 511.327C797.403 509.495 800.613 508.475 803.749 508.884C805.298 509.093 806.832 509.54 808.188 510.329C809.559 511.089 810.743 512.154 811.704 513.36C812.672 514.574 813.424 515.944 813.998 517.366C814.579 518.789 815.003 520.278 815.212 521.797C814.586 518.811 813.357 515.914 811.406 513.606C810.437 512.451 809.268 511.461 807.942 510.761C806.631 510.039 805.156 509.644 803.674 509.48C800.695 509.152 797.671 510.106 795.272 511.885C792.874 513.65 790.907 516.115 789.917 518.9C789.686 519.593 789.522 520.323 789.544 521.023C789.559 521.715 789.805 522.386 790.364 522.668C790.624 522.817 790.982 522.877 791.295 522.884C791.6 522.877 791.868 522.758 792.077 522.534C792.509 522.08 792.695 521.336 792.762 520.628C792.881 519.176 792.576 517.672 792.054 516.279C791.526 514.887 790.744 513.583 789.731 512.496C788.718 511.409 787.444 510.56 786.036 510.098C784.628 509.629 783.086 509.592 781.619 509.905C778.699 510.53 775.988 512.369 774.364 514.968Z" fill="white"/>
<path d="M771.876 515.132C770.208 514.604 768.428 515.534 767.906 517.203C767.378 518.871 768.309 520.65 769.977 521.172C771.646 521.7 773.418 520.77 773.947 519.101C774.469 517.433 773.545 515.654 771.876 515.132ZM773.575 518.982C773.113 520.449 771.549 521.261 770.089 520.799C768.621 520.338 767.81 518.774 768.271 517.314C768.733 515.847 770.297 515.035 771.757 515.497C773.225 515.959 774.037 517.523 773.575 518.982ZM771.876 515.132C770.208 514.604 768.428 515.534 767.906 517.203C767.378 518.871 768.309 520.65 769.977 521.172C771.646 521.7 773.418 520.77 773.947 519.101C774.469 517.433 773.545 515.654 771.876 515.132ZM773.575 518.982C773.113 520.449 771.549 521.261 770.089 520.799C768.621 520.338 767.81 518.774 768.271 517.314C768.733 515.847 770.297 515.035 771.757 515.497C773.225 515.959 774.037 517.523 773.575 518.982ZM771.876 515.132C770.208 514.604 768.428 515.534 767.906 517.203C767.378 518.871 768.309 520.65 769.977 521.172C771.646 521.7 773.418 520.77 773.947 519.101C774.469 517.433 773.545 515.654 771.876 515.132ZM773.575 518.982C773.113 520.449 771.549 521.261 770.089 520.799C768.621 520.338 767.81 518.774 768.271 517.314C768.733 515.847 770.297 515.035 771.757 515.497C773.225 515.959 774.037 517.523 773.575 518.982ZM772.934 511.781C769.418 510.672 765.664 512.63 764.562 516.138C763.452 519.653 765.404 523.398 768.927 524.508C772.443 525.617 776.189 523.659 777.299 520.144C778.401 516.644 776.45 512.891 772.934 511.781ZM774.416 519.25C773.813 521.179 771.75 522.251 769.828 521.641C767.906 521.038 766.834 518.975 767.437 517.054C768.04 515.125 770.104 514.06 772.025 514.663C773.947 515.266 775.02 517.329 774.416 519.25ZM773.947 519.101C774.476 517.433 773.545 515.654 771.884 515.132C770.215 514.604 768.435 515.534 767.914 517.203C767.385 518.871 768.316 520.65 769.985 521.172C771.638 521.693 773.418 520.77 773.947 519.101ZM773.575 518.982C773.113 520.449 771.549 521.261 770.089 520.799C768.621 520.338 767.81 518.774 768.271 517.314C768.733 515.847 770.297 515.035 771.757 515.497C773.225 515.959 774.037 517.523 773.575 518.982ZM771.876 515.132C770.208 514.604 768.428 515.534 767.906 517.203C767.378 518.871 768.309 520.65 769.977 521.172C771.646 521.7 773.418 520.77 773.947 519.101C774.469 517.433 773.545 515.654 771.876 515.132ZM773.575 518.982C773.113 520.449 771.549 521.261 770.089 520.799C768.621 520.338 767.81 518.774 768.271 517.314C768.733 515.847 770.297 515.035 771.757 515.497C773.225 515.959 774.037 517.523 773.575 518.982ZM771.876 515.132C770.208 514.604 768.428 515.534 767.906 517.203C767.378 518.871 768.309 520.65 769.977 521.172C771.646 521.7 773.418 520.77 773.947 519.101C774.469 517.433 773.545 515.654 771.876 515.132ZM773.575 518.982C773.113 520.449 771.549 521.261 770.089 520.799C768.621 520.338 767.81 518.774 768.271 517.314C768.733 515.847 770.297 515.035 771.757 515.497C773.225 515.959 774.037 517.523 773.575 518.982Z" fill="white"/>
<path d="M770.224 524.634L767.78 523.867L767.363 525.64L769.546 526.325L770.224 524.634Z" fill="white"/>
<path d="M765.829 522.348L764.637 520.07L763.095 521.03L764.145 523.056L765.829 522.348Z" fill="white"/>
<path d="M764.339 517.612L765.106 515.162L763.333 514.752L762.648 516.934L764.339 517.612Z" fill="white"/>
<path d="M766.626 513.211L768.905 512.027L767.944 510.485L765.918 511.535L766.626 513.211Z" fill="white"/>
<path d="M771.363 511.722L773.814 512.496L774.224 510.724L772.041 510.039L771.363 511.722Z" fill="white"/>
<path d="M775.764 514.015L776.949 516.294L778.491 515.326L777.441 513.308L775.764 514.015Z" fill="white"/>
<path d="M777.255 518.751L776.48 521.194L778.253 521.611L778.939 519.429L777.255 518.751Z" fill="white"/>
<path d="M774.961 523.145L772.681 524.337L773.649 525.878L775.668 524.828L774.961 523.145Z" fill="white"/>
<path d="M895.373 493.849C898.732 489.329 897.786 482.939 893.257 479.581C888.729 476.222 882.338 477.168 878.986 481.688C875.627 486.216 876.573 492.605 881.101 495.964C885.623 499.323 892.013 498.377 895.373 493.849ZM891.008 490.61C889.436 492.725 886.457 493.164 884.341 491.6C882.226 490.029 881.787 487.05 883.358 484.935C884.93 482.82 887.909 482.381 890.025 483.952C892.133 485.516 892.572 488.502 891.008 490.61Z" fill="white"/>
<path d="M882.926 496.798L879.775 494.46L878.293 496.813L881.094 498.898L882.926 496.798Z" fill="white"/>
<path d="M877.72 491.28L877.139 487.4L874.427 488.026L874.934 491.474L877.72 491.28Z" fill="white"/>
<path d="M877.928 483.706L880.267 480.556L877.906 479.074L875.828 481.874L877.928 483.706Z" fill="white"/>
<path d="M883.44 478.494L887.321 477.92L886.703 475.21L883.254 475.716L883.44 478.494Z" fill="white"/>
<path d="M891.023 478.71L894.173 481.048L895.656 478.687L892.855 476.61L891.023 478.71Z" fill="white"/>
<path d="M896.237 484.22L896.81 488.1L899.522 487.482L899.015 484.027L896.237 484.22Z" fill="white"/>
<path d="M896.021 491.801L893.682 494.951L896.043 496.433L898.121 493.633L896.021 491.801Z" fill="white"/>
<path d="M890.509 497.007L886.628 497.58L887.246 500.298L890.695 499.784L890.509 497.007Z" fill="white"/>
<path d="M883.522 488.264L885.689 490.997L889.138 490.483L890.419 487.244L888.252 484.511L884.803 485.017L883.522 488.264ZM887.634 486.864C888.125 487.229 888.229 487.921 887.864 488.413C887.499 488.904 886.807 489.009 886.315 488.644C885.824 488.279 885.719 487.586 886.084 487.095C886.449 486.603 887.142 486.499 887.634 486.864Z" fill="white"/>
<path d="M965.42 448.308C963.242 444.988 962.019 441.264 962.019 437.321C962.019 423.394 977.309 412.108 996.162 412.108C1015.02 412.108 1030.29 423.394 1030.29 437.321C1030.29 451.247 1015.01 462.534 996.162 462.534C987.019 462.534 978.734 459.886 972.612 455.554L960.853 458.542L965.42 448.308Z" fill="white"/>
<path d="M965.42 448.308C963.363 445.247 962.075 441.628 961.937 437.92C961.832 434.211 962.747 430.463 964.65 427.256C966.513 424.026 969.161 421.305 972.158 419.111C975.154 416.909 978.531 415.241 982.062 414.075C985.585 412.901 989.262 412.188 992.971 411.897C996.68 411.622 1000.42 411.857 1004.09 412.464C1005 412.65 1005.93 412.771 1006.83 413.014L1009.52 413.743L1012.16 414.674C1013.03 414.99 1013.86 415.419 1014.72 415.783C1018.08 417.378 1021.24 419.476 1023.89 422.123C1026.54 424.755 1028.67 427.977 1029.79 431.58C1030.92 435.167 1031 439.11 1029.91 442.721C1028.85 446.34 1026.76 449.595 1024.15 452.267C1021.53 454.947 1018.41 457.077 1015.06 458.712C1011.72 460.364 1008.11 461.449 1004.46 462.105C1000.8 462.736 997.069 463.003 993.359 462.744C989.65 462.509 985.974 461.829 982.443 460.671C978.92 459.514 975.527 457.894 972.514 455.724L972.668 455.749L960.884 458.647L960.706 458.688L960.779 458.526L965.42 448.308ZM965.42 448.308L960.933 458.583L960.828 458.461L972.562 455.376L972.643 455.352L972.716 455.401C978.774 459.578 986.079 461.756 993.384 462.145C997.044 462.372 1000.73 462.072 1004.33 461.424C1007.93 460.752 1011.47 459.692 1014.75 458.056C1018.03 456.445 1021.07 454.348 1023.62 451.733C1026.15 449.126 1028.15 445.976 1029.15 442.494C1030.2 439.021 1030.09 435.256 1029.03 431.807C1027.96 428.349 1025.91 425.232 1023.35 422.658C1020.78 420.075 1017.7 418.018 1014.42 416.439C1013.57 416.075 1012.76 415.654 1011.9 415.346L1009.32 414.423L1006.67 413.703C1005.79 413.468 1004.88 413.338 1003.98 413.152C1000.38 412.537 996.696 412.318 993.035 412.553C989.383 412.812 985.755 413.476 982.264 414.609C978.774 415.735 975.429 417.346 972.457 419.492C969.485 421.621 966.861 424.285 964.974 427.435C963.047 430.56 962.091 434.244 962.132 437.92C962.188 441.596 963.411 445.215 965.42 448.308Z" fill="#263238"/>
<path d="M978.596 441.45V443.328H970.959V432.325H978.459V434.204H973.097V436.851H977.73V438.584H973.097V441.45H978.596Z" fill="#263238"/>
<path d="M980.265 443.32V432.325H985.133C985.635 432.325 986.104 432.43 986.534 432.641C986.963 432.851 987.335 433.135 987.643 433.475C987.951 433.823 988.194 434.212 988.372 434.649C988.55 435.086 988.639 435.531 988.639 435.977C988.639 436.689 988.461 437.337 988.105 437.92C987.748 438.503 987.262 438.924 986.655 439.183L989.166 443.32H986.76L984.517 439.636H982.411V443.32H980.265ZM982.411 437.758H985.092C985.286 437.758 985.473 437.709 985.643 437.62C985.813 437.531 985.959 437.402 986.088 437.24C986.21 437.078 986.307 436.892 986.38 436.673C986.453 436.454 986.485 436.22 986.485 435.977C986.485 435.718 986.445 435.483 986.364 435.264C986.283 435.046 986.169 434.859 986.032 434.697C985.894 434.535 985.732 434.414 985.554 434.325C985.376 434.236 985.189 434.195 985.003 434.195H982.411V437.758Z" fill="#263238"/>
<path d="M990.574 443.32V432.325H995.441C995.943 432.325 996.413 432.43 996.842 432.641C997.271 432.851 997.644 433.135 997.952 433.475C998.259 433.823 998.502 434.212 998.681 434.649C998.859 435.086 998.948 435.531 998.948 435.977C998.948 436.689 998.77 437.337 998.413 437.92C998.057 438.503 997.571 438.924 996.964 439.183L999.474 443.32H997.069L994.826 439.636H992.72V443.32H990.574ZM992.712 437.758H995.393C995.587 437.758 995.773 437.709 995.943 437.62C996.113 437.531 996.259 437.402 996.389 437.24C996.51 437.078 996.607 436.892 996.68 436.673C996.753 436.454 996.786 436.22 996.786 435.977C996.786 435.718 996.745 435.483 996.664 435.264C996.583 435.046 996.47 434.859 996.332 434.697C996.194 434.535 996.032 434.414 995.854 434.325C995.676 434.236 995.49 434.195 995.303 434.195H992.712V437.758Z" fill="#263238"/>
<path d="M1005.58 443.401C1004.77 443.401 1004.04 443.247 1003.39 442.932C1002.73 442.616 1002.16 442.195 1001.69 441.677C1001.22 441.158 1000.86 440.559 1000.6 439.887C1000.34 439.215 1000.21 438.527 1000.21 437.823C1000.21 437.086 1000.35 436.389 1000.62 435.717C1000.9 435.045 1001.27 434.454 1001.76 433.936C1002.24 433.418 1002.81 433.005 1003.47 432.705C1004.14 432.398 1004.85 432.244 1005.63 432.244C1006.42 432.244 1007.15 432.406 1007.81 432.73C1008.46 433.054 1009.02 433.483 1009.49 434.009C1009.95 434.535 1010.32 435.134 1010.58 435.806C1010.84 436.478 1010.97 437.159 1010.97 437.855C1010.97 438.592 1010.83 439.288 1010.56 439.952C1010.29 440.616 1009.92 441.207 1009.44 441.717C1008.97 442.227 1008.4 442.64 1007.73 442.94C1007.07 443.247 1006.35 443.401 1005.58 443.401ZM1002.38 437.823C1002.38 438.3 1002.45 438.754 1002.6 439.199C1002.75 439.644 1002.96 440.033 1003.23 440.373C1003.51 440.713 1003.84 440.988 1004.24 441.191C1004.63 441.401 1005.09 441.498 1005.59 441.498C1006.11 441.498 1006.56 441.393 1006.96 441.183C1007.35 440.972 1007.69 440.689 1007.96 440.341C1008.24 439.992 1008.44 439.596 1008.59 439.158C1008.72 438.721 1008.8 438.276 1008.8 437.814C1008.8 437.337 1008.72 436.883 1008.57 436.438C1008.41 435.993 1008.2 435.604 1007.94 435.264C1007.66 434.924 1007.33 434.649 1006.93 434.454C1006.54 434.252 1006.09 434.155 1005.59 434.155C1005.07 434.155 1004.61 434.26 1004.21 434.47C1003.81 434.681 1003.47 434.964 1003.21 435.304C1002.94 435.653 1002.74 436.041 1002.59 436.478C1002.45 436.924 1002.38 437.369 1002.38 437.823Z" fill="#263238"/>
<path d="M1012.59 443.32V432.325H1017.46C1017.96 432.325 1018.43 432.43 1018.86 432.641C1019.29 432.851 1019.66 433.135 1019.97 433.475C1020.28 433.823 1020.52 434.212 1020.7 434.649C1020.88 435.086 1020.97 435.531 1020.97 435.977C1020.97 436.689 1020.79 437.337 1020.43 437.92C1020.08 438.503 1019.59 438.924 1018.98 439.183L1021.49 443.32H1019.09L1016.85 439.636H1014.74V443.32H1012.59ZM1014.74 437.758H1017.42C1017.62 437.758 1017.8 437.709 1017.97 437.62C1018.14 437.531 1018.29 437.402 1018.42 437.24C1018.54 437.078 1018.64 436.892 1018.71 436.673C1018.78 436.454 1018.81 436.22 1018.81 435.977C1018.81 435.718 1018.77 435.483 1018.69 435.264C1018.61 435.046 1018.5 434.859 1018.36 434.697C1018.22 434.535 1018.06 434.414 1017.88 434.325C1017.7 434.236 1017.52 434.195 1017.33 434.195H1014.74V437.758Z" fill="#263238"/>
<path d="M41.0357 56.6992L21.0038 57.0771L10.8664 57.2255C7.47822 57.293 4.07658 57.2795 0.67493 57.3065H0.0809915V56.6992L0 39.6543V38.9795H0.67493L20.8553 39.0605C27.5776 39.074 34.3134 39.2089 41.0357 39.2764H41.4137V39.6408C41.3867 42.5288 41.2922 45.4034 41.2382 48.251L41.0357 56.6992ZM41.0357 56.6992L40.8468 48.089C40.7793 45.2549 40.6983 42.4344 40.6713 39.6408L41.0357 40.0052C34.3134 40.0726 27.5776 40.2211 20.8553 40.2211L0.67493 40.3291L1.34986 39.6543L1.26887 56.6992L0.661431 56.0919C3.99558 56.1189 7.31624 56.1054 10.6504 56.1594L20.6798 56.3078L41.0357 56.6992Z" fill="#EBEBEB"/>
<path d="M1394.61 59.6976L1374.59 60.0755L1364.44 60.224C1361.05 60.2914 1357.65 60.2779 1354.25 60.3049H1353.65V59.6976L1353.59 42.6527V41.9779H1354.26L1374.44 42.0589C1381.16 42.0724 1387.9 42.2073 1394.62 42.2748H1395V42.6392C1394.97 45.5272 1394.88 48.4018 1394.82 51.2494L1394.61 59.6976ZM1394.61 59.6976L1394.42 51.0874C1394.35 48.2534 1394.27 45.4328 1394.24 42.6392L1394.61 43.0036C1387.89 43.071 1381.15 43.2195 1374.43 43.2195L1354.25 43.3005L1354.92 42.6257L1354.86 59.6706L1354.25 59.0633C1357.58 59.0903 1360.9 59.0768 1364.24 59.1308L1374.27 59.2793L1394.61 59.6976Z" fill="#EBEBEB"/>
<path d="M1381.6 87.6964L1361.58 88.0742L1351.44 88.2227C1348.06 88.2902 1344.65 88.2767 1341.25 88.2902H1340.66V87.6829L1340.59 70.6379V69.9631H1341.27L1361.45 70.0441C1368.17 70.0441 1374.9 70.1926 1381.63 70.26H1382V70.6244C1381.98 73.5125 1381.88 76.387 1381.83 79.2346L1381.6 87.6964ZM1381.6 87.6964L1381.41 79.0862C1381.34 76.2521 1381.26 73.4315 1381.23 70.6379L1381.6 71.0023C1374.88 71.0698 1368.14 71.2182 1361.42 71.2182L1341.24 71.2992L1341.91 70.6244L1341.85 87.6694L1341.24 87.0621C1344.57 87.0891 1347.89 87.0756 1351.23 87.143L1361.26 87.2915L1381.6 87.6964Z" fill="#EBEBEB"/>
<path d="M1109.7 637.406L1089.68 637.784L1079.53 637.933C1076.14 638 1072.74 637.987 1069.33 638H1068.74V637.393L1068.67 620.348V619.673H1069.35L1089.53 619.754C1096.25 619.767 1102.99 619.902 1109.71 619.97H1110.09V620.334C1110.06 623.222 1109.97 626.097 1109.91 628.944L1109.7 637.406ZM1109.7 637.406L1109.51 628.796C1109.45 625.962 1109.36 623.141 1109.33 620.348L1109.7 620.712C1102.97 620.78 1096.24 620.928 1089.52 620.928L1069.33 621.009L1070.01 620.334L1069.94 637.379L1069.33 636.772C1072.67 636.799 1075.99 636.785 1079.32 636.839L1089.35 636.988L1109.7 637.406Z" fill="#EBEBEB"/>
<path d="M459.404 543.919L467.355 531.111L463.427 528.682C462.279 527.967 461.645 526.658 461.767 525.308C461.834 524.566 461.861 523.81 461.834 523.054C461.807 521.705 462.509 520.436 463.71 519.802L467.773 517.616L460.646 504.322L456.583 506.509C455.395 507.143 453.951 507.035 452.844 506.266C452.223 505.834 451.589 505.443 450.927 505.078C449.739 504.43 448.997 503.189 449.037 501.826L449.186 497.21L434.121 496.738L433.986 501.367C433.946 502.73 433.109 503.904 431.881 504.484C431.543 504.646 431.219 504.808 430.895 504.984C430.571 505.159 430.247 505.348 429.937 505.537C428.776 506.239 427.345 506.279 426.198 505.564L422.243 503.121L414.292 515.929L418.22 518.371C419.367 519.087 420.002 520.396 419.88 521.745C419.813 522.488 419.786 523.243 419.813 523.986C419.84 525.335 419.138 526.59 417.937 527.238L413.874 529.424L421.001 542.717L425.064 540.531C426.252 539.897 427.696 540.005 428.803 540.774C429.424 541.206 430.058 541.597 430.72 541.948C431.908 542.596 432.65 543.838 432.61 545.201L432.461 549.83L447.526 550.302L447.674 545.673C447.715 544.323 448.551 543.149 449.766 542.569C450.104 542.407 450.428 542.245 450.765 542.07C451.089 541.894 451.413 541.705 451.724 541.516C452.884 540.815 454.329 540.774 455.49 541.489L459.404 543.919ZM446.635 534.404C440.628 537.63 433.15 535.376 429.923 529.357C426.697 523.351 428.951 515.861 434.958 512.636C440.965 509.41 448.457 511.678 451.683 517.683C454.923 523.702 452.655 531.179 446.635 534.404Z" fill="#EBEBEB"/>
<path d="M750.925 576.788C749.191 571.507 746.469 566.486 742.599 562.551C740.665 560.614 738.38 558.958 735.804 558.173C733.229 557.418 730.376 557.636 727.992 558.798C725.594 559.937 723.805 562.127 722.857 564.61C722.37 565.843 722.095 567.172 722.031 568.488C721.978 569.798 722.129 571.161 722.651 572.278C722.909 572.831 723.295 573.309 723.74 573.566C723.96 573.703 724.212 573.76 724.468 573.799C724.59 573.822 724.727 573.789 724.866 573.787C724.999 573.772 725.074 573.713 725.176 573.701C726.002 573.269 726.519 571.847 726.793 570.597C727.352 567.98 727.284 565.197 726.997 562.493C726.379 557.065 724.717 551.665 721.628 547.168C720.076 544.947 718.169 542.948 715.862 541.524C713.573 540.104 710.998 539.132 708.255 538.895C706.913 538.596 705.538 538.675 704.175 538.638C703.488 538.583 702.816 538.769 702.142 538.817C701.471 538.925 700.77 538.925 700.118 539.147C697.431 539.705 694.901 540.858 692.525 542.25C687.815 545.133 683.896 549.274 680.932 553.985C682.257 551.533 683.945 549.277 685.813 547.197C687.706 545.133 689.796 543.221 692.17 541.691C694.559 540.214 697.137 538.955 699.922 538.324C700.597 538.089 701.316 538.063 702.01 537.942C702.719 537.874 703.408 537.663 704.118 537.704C705.539 537.707 706.972 537.595 708.38 537.871C711.216 538.054 714.034 539.042 716.468 540.549C718.943 542.048 720.959 544.155 722.62 546.484C725.891 551.187 727.648 556.751 728.326 562.363C728.602 565.182 728.657 568.051 728.034 570.907C727.884 571.618 727.656 572.327 727.342 573.024C726.984 573.699 726.57 574.438 725.683 574.873C725.199 575.06 724.772 575.105 724.347 575.07C723.914 575.024 723.472 574.906 723.1 574.669C722.341 574.22 721.844 573.525 721.524 572.837C720.874 571.42 720.752 569.915 720.814 568.46C720.905 567.004 721.21 565.564 721.75 564.206C722.787 561.5 724.841 559.094 727.531 557.895C730.196 556.679 733.289 556.526 736.04 557.397C738.8 558.31 741.134 560.077 743.057 562.13C744.986 564.194 746.547 566.566 747.854 569.037C749.182 571.465 750.226 574.073 750.925 576.788Z" fill="white"/>
<path d="M680.505 555.105C679.903 552.397 677.216 550.694 674.507 551.295C671.798 551.897 670.094 554.584 670.696 557.292C671.298 560 673.985 561.704 676.687 561.09C679.403 560.5 681.107 557.814 680.505 555.105ZM676.567 560.505C674.192 561.038 671.826 559.539 671.293 557.165C670.76 554.791 672.26 552.425 674.641 551.904C677.015 551.371 679.382 552.871 679.903 555.251C680.436 557.625 678.941 559.972 676.567 560.505ZM680.505 555.105C679.903 552.397 677.216 550.694 674.507 551.295C671.798 551.897 670.094 554.584 670.696 557.292C671.298 560 673.985 561.704 676.687 561.09C679.403 560.5 681.107 557.814 680.505 555.105ZM676.567 560.505C674.192 561.038 671.826 559.539 671.293 557.165C670.76 554.791 672.26 552.425 674.641 551.904C677.015 551.371 679.382 552.871 679.903 555.251C680.436 557.625 678.941 559.972 676.567 560.505ZM680.505 555.105C679.903 552.397 677.216 550.694 674.507 551.295C671.798 551.897 670.094 554.584 670.696 557.292C671.298 560 673.985 561.704 676.687 561.09C679.403 560.5 681.107 557.814 680.505 555.105ZM676.567 560.505C674.192 561.038 671.826 559.539 671.293 557.165C670.76 554.791 672.26 552.425 674.641 551.904C677.015 551.371 679.382 552.871 679.903 555.251C680.436 557.625 678.941 559.972 676.567 560.505ZM685.934 553.895C684.658 548.193 679 544.592 673.296 545.867C667.593 547.143 663.991 552.8 665.267 558.502C666.542 564.205 672.194 567.794 677.905 566.53C683.615 565.267 687.21 559.598 685.934 553.895ZM676.868 561.859C673.747 562.559 670.638 560.585 669.939 557.466C669.239 554.346 671.213 551.238 674.333 550.538C677.453 549.839 680.563 551.812 681.262 554.932C681.969 558.063 679.994 561.171 676.868 561.859ZM676.694 561.102C679.403 560.5 681.107 557.814 680.505 555.105C679.903 552.397 677.216 550.694 674.507 551.295C671.798 551.897 670.094 554.584 670.696 557.292C671.305 560.012 673.985 561.704 676.694 561.102ZM676.567 560.505C674.192 561.038 671.826 559.539 671.293 557.165C670.76 554.791 672.26 552.425 674.641 551.904C677.015 551.371 679.382 552.871 679.903 555.251C680.436 557.625 678.941 559.972 676.567 560.505ZM680.505 555.105C679.903 552.397 677.216 550.694 674.507 551.295C671.798 551.897 670.094 554.584 670.696 557.292C671.298 560 673.985 561.704 676.687 561.09C679.403 560.5 681.107 557.814 680.505 555.105ZM676.567 560.505C674.192 561.038 671.826 559.539 671.293 557.165C670.76 554.791 672.26 552.425 674.641 551.904C677.015 551.371 679.382 552.871 679.903 555.251C680.436 557.625 678.941 559.972 676.567 560.505ZM680.505 555.105C679.903 552.397 677.216 550.694 674.507 551.295C671.798 551.897 670.094 554.584 670.696 557.292C671.298 560 673.985 561.704 676.687 561.09C679.403 560.5 681.107 557.814 680.505 555.105ZM676.567 560.505C674.192 561.038 671.826 559.539 671.293 557.165C670.76 554.791 672.26 552.425 674.641 551.904C677.015 551.371 679.382 552.871 679.903 555.251C680.436 557.625 678.941 559.972 676.567 560.505Z" fill="white"/>
<path d="M666.145 560.396L665.255 556.435L662.493 557.27L663.279 560.808L666.145 560.396Z" fill="white"/>
<path d="M665.789 552.538L667.979 549.102L665.423 547.76L663.475 550.806L665.789 552.538Z" fill="white"/>
<path d="M671.1 546.734L675.079 545.848L674.226 543.083L670.695 543.88L671.1 546.734Z" fill="white"/>
<path d="M678.965 546.39L682.395 548.568L683.757 546.017L680.698 544.077L678.965 546.39Z" fill="white"/>
<path d="M684.771 551.7L685.649 555.667L688.423 554.825L687.637 551.287L684.771 551.7Z" fill="white"/>
<path d="M685.127 559.556L682.937 562.992L685.5 564.347L687.429 561.295L685.127 559.556Z" fill="white"/>
<path d="M679.816 565.361L675.837 566.246L676.69 569.011L680.221 568.214L679.816 565.361Z" fill="white"/>
<path d="M671.951 565.705L668.509 563.534L667.159 566.078L670.218 568.019L671.951 565.705Z" fill="white"/>
<path d="M642.21 481.201C635.277 487.984 634.116 498.484 635.574 507.674C635.612 507.881 635.935 507.828 635.935 507.632C635.935 505.537 635.872 503.463 635.877 501.395C635.914 501.3 635.946 501.21 635.983 501.12C637.792 499.804 639.457 498.319 640.486 496.283C641.643 494.008 642.099 491.441 642.985 489.06C643.064 488.832 642.825 488.901 642.666 489.018C638.449 492.125 637.107 495.472 635.898 499.942C635.956 497.619 636.131 495.302 636.63 492.979C637.542 488.737 639.346 484.531 642.39 481.381C642.507 481.259 642.332 481.079 642.21 481.201Z" fill="#263238"/>
<path d="M643.515 481.992C644.709 482.034 645.457 483.938 646.385 484.495C646.878 484.792 647.355 484.77 647.7 484.288C648.623 483.004 647.355 481.419 646.167 480.528C647.016 480.878 647.721 481.493 648.639 481.663C649.196 481.764 649.626 481.557 649.753 480.995C650.156 479.245 647.96 478.465 646.448 478.428C647.18 477.919 649.276 476.54 648.162 475.861C647.032 475.177 644.576 477.155 643.775 477.807C642.598 478.762 641.192 480.194 641.139 481.689C641.07 483.429 642.598 482.357 643.515 481.992Z" fill="#FFC727"/>
<path opacity="0.1" d="M643.515 481.992C644.709 482.034 645.457 483.938 646.385 484.495C646.878 484.792 647.355 484.77 647.7 484.288C648.623 483.004 647.355 481.419 646.167 480.528C647.016 480.878 647.721 481.493 648.639 481.663C649.196 481.764 649.626 481.557 649.753 480.995C650.156 479.245 647.96 478.465 646.448 478.428C647.18 477.919 649.276 476.54 648.162 475.861C647.032 475.177 644.576 477.155 643.775 477.807C642.598 478.762 641.192 480.194 641.139 481.689C641.07 483.429 642.598 482.357 643.515 481.992Z" fill="black"/>
<path d="M643.17 482.283C644.693 481.588 647.626 482.585 647.875 482.013C648.379 480.841 646.04 480.035 644.777 479.876C645.939 479.563 648.172 479.059 648.103 477.935C648.018 476.566 644.682 477.744 642.995 479.038C640.868 480.666 640.884 482.241 641.234 482.559C641.712 482.988 642.916 482.4 643.17 482.283Z" fill="#FFC727"/>
<path d="M626.424 480.528C633.612 487.045 635.171 497.487 634.062 506.73C634.031 506.942 633.707 506.895 633.702 506.698C633.622 504.609 633.606 502.53 633.521 500.467C633.479 500.372 633.447 500.287 633.405 500.191C631.548 498.945 629.83 497.524 628.721 495.53C627.48 493.297 626.923 490.752 625.952 488.408C625.862 488.185 626.106 488.244 626.271 488.355C630.604 491.303 632.073 494.591 633.453 499.014C633.309 496.697 633.044 494.385 632.455 492.083C631.384 487.878 629.421 483.747 626.255 480.713C626.127 480.602 626.297 480.411 626.424 480.528Z" fill="#263238"/>
<path d="M625.152 481.366C623.963 481.45 623.284 483.386 622.377 483.975C621.9 484.288 621.417 484.288 621.057 483.816C620.086 482.564 621.29 480.936 622.441 480.003C621.603 480.385 620.924 481.026 620.017 481.233C619.465 481.355 619.025 481.164 618.877 480.607C618.405 478.873 620.574 478.009 622.08 477.913C621.333 477.431 619.184 476.131 620.272 475.41C621.375 474.684 623.905 476.566 624.733 477.187C625.947 478.099 627.406 479.472 627.517 480.963C627.65 482.713 626.085 481.7 625.152 481.366Z" fill="#FFC727"/>
<path opacity="0.1" d="M625.152 481.366C623.963 481.45 623.284 483.386 622.377 483.975C621.9 484.288 621.417 484.288 621.057 483.816C620.086 482.564 621.29 480.936 622.441 480.003C621.603 480.385 620.924 481.026 620.017 481.233C619.465 481.355 619.025 481.164 618.877 480.607C618.405 478.873 620.574 478.009 622.08 477.913C621.333 477.431 619.184 476.131 620.272 475.41C621.375 474.684 623.905 476.566 624.733 477.187C625.947 478.099 627.406 479.472 627.517 480.963C627.65 482.713 626.085 481.7 625.152 481.366Z" fill="black"/>
<path d="M625.507 481.647C623.958 481.01 621.067 482.119 620.797 481.551C620.245 480.395 622.558 479.504 623.815 479.297C622.643 479.027 620.394 478.608 620.42 477.484C620.452 476.11 623.831 477.16 625.565 478.391C627.751 479.939 627.798 481.514 627.459 481.843C626.992 482.299 625.762 481.753 625.507 481.647Z" fill="#FFC727"/>
<path d="M633.771 497.736C634.301 501.173 634.959 504.72 636.004 508.04C636.105 508.342 636.55 508.263 636.508 507.939C636.036 504.763 635.177 501.65 634.705 498.473C634.227 495.26 633.967 492.003 634.153 488.753C634.455 483.402 635.909 477.712 639.399 473.522C639.473 473.421 639.314 473.284 639.234 473.374C632.243 481.525 633.357 491.516 633.363 492.412C632.371 489.039 631.352 485.168 627.607 481.737C627.448 481.588 627.321 481.657 627.348 481.912C628.016 488.169 629.756 491.436 633.384 494.782C633.485 495.774 633.612 496.76 633.771 497.736Z" fill="#263238"/>
<path d="M639.457 474.461C640.714 473.904 642.449 475.505 643.695 475.612C644.353 475.67 644.841 475.41 644.958 474.736C645.265 472.939 643.16 471.931 641.478 471.608C642.534 471.544 643.573 471.825 644.613 471.544C645.239 471.369 645.584 470.939 645.435 470.287C644.974 468.267 642.3 468.564 640.714 469.285C641.218 468.389 642.698 465.902 641.197 465.758C639.685 465.62 638.126 468.903 637.622 469.985C636.879 471.571 636.142 473.761 636.837 475.341C637.648 477.187 638.693 475.304 639.457 474.461Z" fill="#FFC727"/>
<path opacity="0.1" d="M639.457 474.461C640.714 473.904 642.449 475.505 643.695 475.612C644.353 475.67 644.841 475.41 644.958 474.736C645.265 472.939 643.16 471.931 641.478 471.608C642.534 471.544 643.573 471.825 644.613 471.544C645.239 471.369 645.584 470.939 645.435 470.287C644.974 468.267 642.3 468.564 640.714 469.285C641.218 468.389 642.698 465.902 641.197 465.758C639.685 465.62 638.126 468.903 637.622 469.985C636.879 471.571 636.142 473.761 636.837 475.341C637.648 477.187 638.693 475.304 639.457 474.461Z" fill="black"/>
<path d="M639.251 474.944C640.481 473.459 644.024 473.018 643.993 472.292C643.924 470.818 641.091 471.162 639.701 471.634C640.752 470.722 642.81 469.078 642.173 467.949C641.399 466.57 638.529 469.471 637.426 471.661C636.042 474.424 636.848 476.047 637.368 476.2C638.094 476.407 639.044 475.187 639.251 474.944Z" fill="#FFC727"/>
<path d="M629.172 499.619L626.09 523.175H644.852C644.464 521.086 640.974 499.592 640.974 499.592L629.172 499.619Z" fill="#FFC727"/>
<path d="M645.679 39.3668C642.845 39.3668 640.266 38.8135 637.958 37.7068C635.65 36.6002 633.665 35.1292 632.019 33.2938C630.358 31.4584 629.076 29.3665 628.172 26.9913C627.267 24.6296 626.808 22.2139 626.808 19.7442C626.808 17.1665 627.294 14.6968 628.253 12.3351C629.211 9.97337 630.547 7.88155 632.235 6.05965C633.922 4.23774 635.933 2.79371 638.255 1.72756C640.577 0.661406 643.115 0.121582 645.841 0.121582C648.635 0.121582 651.2 0.688397 653.508 1.83552C655.817 2.98265 657.787 4.48066 659.421 6.32956C661.054 8.17845 662.323 10.2973 663.241 12.659C664.145 15.0207 664.604 17.4229 664.604 19.8521C664.604 22.4298 664.132 24.8995 663.187 27.2342C662.242 29.5825 660.933 31.6473 659.259 33.4422C657.585 35.2371 655.587 36.6812 653.265 37.7473C650.93 38.827 648.406 39.3668 645.679 39.3668ZM634.448 19.7307C634.448 21.4041 634.705 23.0236 635.218 24.5891C635.731 26.1546 636.46 27.5311 637.432 28.7323C638.39 29.9334 639.578 30.8915 640.982 31.6203C642.386 32.3491 643.965 32.7135 645.747 32.7135C647.569 32.7135 649.175 32.3356 650.566 31.5933C651.97 30.8511 653.144 29.8524 654.116 28.6243C655.074 27.3827 655.803 25.9926 656.303 24.4541C656.789 22.9156 657.045 21.3367 657.045 19.7442C657.045 18.0707 656.775 16.4513 656.249 14.8858C655.722 13.3203 654.98 11.9437 654.008 10.7426C653.049 9.54151 651.862 8.58332 650.458 7.88155C649.054 7.17978 647.488 6.8154 645.747 6.8154C643.924 6.8154 642.318 7.19328 640.887 7.93553C639.47 8.67779 638.282 9.66297 637.337 10.8776C636.392 12.0922 635.677 13.4822 635.177 15.0207C634.691 16.5592 634.448 18.1382 634.448 19.7307Z" fill="white"/>
<path d="M682.868 39.6367C680.546 39.6367 678.454 39.2318 676.591 38.4356C674.742 37.6393 673.162 36.5597 671.88 35.1966C670.584 33.8336 669.599 32.2681 668.91 30.4867C668.222 28.7052 667.871 26.8294 667.871 24.8725C667.871 22.8751 668.222 20.9858 668.91 19.2043C669.599 17.4229 670.598 15.8574 671.88 14.4944C673.176 13.1313 674.742 12.0517 676.591 11.2554C678.44 10.4592 680.533 10.0543 682.868 10.0543C685.19 10.0543 687.282 10.4592 689.118 11.2554C690.954 12.0517 692.519 13.1313 693.802 14.4944C695.098 15.8574 696.083 17.4229 696.771 19.2043C697.46 20.9858 697.811 22.8751 697.811 24.8725C697.811 26.8294 697.46 28.7052 696.771 30.4867C696.083 32.2681 695.098 33.8336 693.829 35.1966C692.56 36.5597 690.994 37.6393 689.145 38.4356C687.282 39.2318 685.19 39.6367 682.868 39.6367ZM675.403 24.859C675.403 26.1276 675.592 27.2882 675.97 28.3274C676.348 29.3665 676.875 30.2572 677.549 31.0265C678.224 31.7957 679.007 32.376 679.925 32.7944C680.83 33.2128 681.815 33.4152 682.868 33.4152C683.921 33.4152 684.906 33.2128 685.811 32.7944C686.715 32.376 687.511 31.7822 688.186 31.0265C688.861 30.2572 689.388 29.353 689.766 28.3004C690.144 27.2477 690.333 26.0871 690.333 24.805C690.333 23.5769 690.144 22.4298 689.766 21.3771C689.388 20.3245 688.861 19.4203 688.186 18.651C687.511 17.8818 686.729 17.3015 685.811 16.8831C684.906 16.4647 683.921 16.2623 682.868 16.2623C681.815 16.2623 680.83 16.4782 679.925 16.9101C679.021 17.3419 678.224 17.9492 677.549 18.705C676.875 19.4742 676.348 20.3785 675.97 21.4311C675.592 22.4838 675.403 23.6309 675.403 24.859Z" fill="white"/>
<path d="M719.84 39.6366C717.586 39.6366 715.629 39.1373 713.955 38.1386C712.281 37.1399 710.972 35.7904 710.027 34.0764V50.703H702.724V10.5266H709.109V15.439C710.162 13.7656 711.525 12.4565 713.199 11.4848C714.873 10.5266 716.803 10.0408 718.976 10.0408C720.907 10.0408 722.689 10.4321 724.322 11.2149C725.955 11.9976 727.373 13.0503 728.547 14.3729C729.735 15.6954 730.653 17.2609 731.328 19.0558C732.003 20.8507 732.34 22.7536 732.34 24.751C732.34 26.8158 732.03 28.7727 731.409 30.5811C730.788 32.403 729.924 33.982 728.817 35.318C727.71 36.6676 726.387 37.7202 724.862 38.476C723.336 39.2587 721.663 39.6366 719.84 39.6366ZM717.384 33.4151C718.477 33.4151 719.476 33.1857 720.407 32.6999C721.339 32.2275 722.122 31.5932 722.783 30.797C723.431 30.0008 723.944 29.0696 724.308 28.0169C724.673 26.9643 724.848 25.8711 724.848 24.751C724.848 23.5499 724.646 22.4297 724.254 21.4041C723.849 20.3649 723.296 19.4742 722.594 18.7049C721.879 17.9357 721.055 17.3419 720.083 16.91C719.125 16.4782 718.072 16.2622 716.952 16.2622C716.263 16.2622 715.548 16.3837 714.819 16.6131C714.09 16.856 713.415 17.1799 712.794 17.6253C712.173 18.0572 711.62 18.57 711.134 19.1503C710.648 19.7306 710.27 20.3649 710.013 21.0532V27.7605C710.675 29.3935 711.674 30.7565 713.01 31.8227C714.373 32.8888 715.818 33.4151 717.384 33.4151Z" fill="white"/>
<path d="M748.08 39.6366C745.677 39.6366 743.342 39.2587 741.047 38.4895C738.752 37.7202 736.795 36.6406 735.161 35.2235L737.888 30.6485C739.629 31.8901 741.33 32.8213 742.991 33.4556C744.651 34.0899 746.284 34.4138 747.931 34.4138C749.389 34.4138 750.523 34.1439 751.36 33.5906C752.197 33.0507 752.615 32.268 752.615 31.2423C752.615 30.2302 752.129 29.4744 751.144 29.0021C750.158 28.5297 748.565 27.9899 746.352 27.3691C744.502 26.8563 742.923 26.3704 741.614 25.8981C740.304 25.4257 739.251 24.8859 738.455 24.2921C737.659 23.6983 737.078 22.9965 736.714 22.2273C736.349 21.4445 736.174 20.5133 736.174 19.4202C736.174 17.9626 736.457 16.6536 737.024 15.493C737.591 14.3323 738.374 13.3337 739.4 12.5239C740.412 11.7007 741.614 11.0799 742.977 10.648C744.34 10.2162 745.825 10.0002 747.418 10.0002C749.564 10.0002 751.576 10.3106 753.438 10.9314C755.315 11.5522 757.029 12.5509 758.595 13.9275L755.652 18.3405C754.194 17.2474 752.791 16.4511 751.427 15.9383C750.064 15.4255 748.714 15.1691 747.364 15.1691C746.122 15.1691 745.096 15.4255 744.259 15.9383C743.423 16.4511 743.004 17.2609 743.004 18.3945C743.004 18.9073 743.099 19.3257 743.301 19.6496C743.504 19.9735 743.814 20.2704 744.259 20.5268C744.691 20.7832 745.272 21.0262 745.974 21.2691C746.689 21.512 747.567 21.7549 748.619 22.0113C750.577 22.5242 752.264 23.0235 753.668 23.5363C755.072 24.0492 756.206 24.6295 757.097 25.2773C757.988 25.9251 758.635 26.6808 759.067 27.5445C759.486 28.3947 759.688 29.4204 759.688 30.6215C759.688 33.4151 758.649 35.6284 756.584 37.2479C754.464 38.8268 751.643 39.6366 748.08 39.6366Z" fill="white"/>
<path d="M765.803 24.535V0H773.106V24.535H765.803ZM765.803 39.0833V30.8509H773.106V39.0833H765.803Z" fill="white"/>
</svg>
