<svg width="399" height="398" viewBox="0 0 399 398" fill="none" xmlns="http://www.w3.org/2000/svg">
<path d="M174.625 266.337L112.438 204.137L130.012 186.562L174.625 231.163L268.963 136.812L286.562 154.412L174.625 266.337Z" fill="#064CA1"/>
<path d="M199.5 24.875C165.061 24.875 131.396 35.0873 102.761 54.2204C74.1267 73.3535 51.8087 100.548 38.6296 132.365C25.4504 164.182 22.0022 199.193 28.7208 232.97C35.4395 266.747 52.0233 297.773 76.3751 322.125C100.727 346.477 131.753 363.061 165.53 369.779C199.307 376.498 234.318 373.05 266.135 359.871C297.952 346.691 325.147 324.373 344.28 295.739C363.413 267.104 373.625 233.439 373.625 199C373.625 152.819 355.28 108.53 322.625 75.875C289.97 43.2203 245.681 24.875 199.5 24.875ZM199.5 348.25C169.981 348.25 141.125 339.497 116.581 323.097C92.0372 306.697 72.9074 283.387 61.6111 256.116C50.3147 228.844 47.359 198.834 53.1179 169.883C58.8767 140.931 73.0914 114.337 93.9644 93.4643C114.837 72.5913 141.431 58.3766 170.383 52.6178C199.335 46.859 229.344 49.8146 256.616 61.111C283.887 72.4074 307.197 91.5371 323.597 116.081C339.997 140.625 348.75 169.481 348.75 199C348.75 238.584 333.026 276.546 305.036 304.536C277.046 332.525 239.084 348.25 199.5 348.25Z" fill="#064CA1"/>
</svg>
