<svg width="182" height="250" viewBox="0 0 182 250" fill="none" xmlns="http://www.w3.org/2000/svg">
<path d="M142.757 0H0.914062V250H181.086V41.6614L142.757 0Z" fill="#E8E8E8"/>
<path d="M150.488 123.632C147.725 118.278 138.175 116.596 133.794 115.839C130.341 115.242 126.816 115.064 123.323 115.067C120.581 115.047 117.879 115.194 115.212 115.359C114.228 115.431 113.255 115.523 112.283 115.615C111.286 114.493 110.322 113.335 109.39 112.15C103.458 104.517 98.6679 95.8605 94.7649 86.8652C95.8011 82.5189 96.6303 77.9829 97.131 73.2722C98.0451 64.6744 98.3591 54.876 95.3953 46.6789C94.3719 43.8498 91.6432 40.4056 88.495 42.1207C84.8757 44.0931 83.8576 49.6812 83.5625 53.6424C83.3251 56.8442 83.4912 60.0543 83.9858 63.2025C84.4896 66.3722 85.3005 69.3818 86.1835 72.3874C87.0074 75.1431 87.9154 77.8774 88.9054 80.5861C88.2773 82.7184 87.6105 84.8137 86.9103 86.8553C85.2777 91.5084 83.5125 95.9289 81.8147 100.181C80.9196 102.29 80.0434 104.354 79.1861 106.371C76.4734 112.848 73.5285 119.207 70.2232 125.353C62.5135 128.309 55.595 131.736 49.8494 135.763C46.7671 137.928 44.0445 140.278 41.777 142.857C39.6363 145.291 37.4606 148.45 37.2702 151.947C37.1632 153.921 37.8824 155.836 39.37 157.007C41.4159 158.669 44.1272 158.558 46.5009 158.017C54.2766 156.245 60.2476 148.979 65.3325 142.856C68.835 138.638 72.8214 133.283 76.9915 126.806C77.0006 126.791 77.0097 126.776 77.0196 126.761C84.1717 124.351 91.9557 122.316 100.217 120.82C103.991 120.14 107.865 119.583 111.817 119.193C114.596 122.022 117.598 124.598 120.874 126.749C123.425 128.455 126.138 129.895 128.979 130.97C131.851 131.99 134.74 132.823 137.724 133.35C139.23 133.584 140.771 133.69 142.345 133.626C145.858 133.481 150.901 132.017 151.232 127.384C151.333 125.966 151.052 124.722 150.488 123.632ZM66.3824 132.133C64.737 134.904 63.15 137.396 61.6548 139.588C57.993 145.004 53.8108 151.437 47.7556 153.842C46.6056 154.299 45.0914 154.77 43.4953 154.668C42.0737 154.577 40.6718 153.895 40.7362 152.141C40.7681 151.222 41.1815 150.05 41.8157 148.899C42.5099 147.637 43.3694 146.479 44.3002 145.415C46.2945 143.137 48.8161 140.93 51.717 138.886C56.1663 135.748 61.478 132.924 67.3989 130.404C67.0583 130.99 66.7185 131.572 66.3824 132.133ZM87.0332 62.655C86.5765 59.7574 86.5074 56.8195 86.7881 53.9945C86.9277 52.582 87.1925 51.2033 87.5756 49.9112C87.9002 48.8146 88.6012 46.138 89.7194 45.7942C91.5628 45.2269 92.1295 49.5286 92.3381 50.7457C93.5261 57.6688 92.4792 65.3678 91.0538 72.159C90.8269 73.2392 90.5743 74.302 90.3156 75.3608C89.8741 74.0407 89.4531 72.7164 89.0655 71.3855C88.231 68.4789 87.4678 65.5385 87.0332 62.655ZM99.689 117.308C92.7629 118.528 86.1744 120.127 79.9812 122.014C80.7269 121.787 84.1345 114.768 84.8946 113.311C88.476 106.455 91.4058 99.2585 93.5109 91.7096C97.2281 99.7005 101.739 107.345 107.282 114.149C107.792 114.767 108.311 115.377 108.839 115.98C105.734 116.344 102.677 116.786 99.689 117.308ZM146.528 126.95C146.275 128.438 143.35 129.289 141.986 129.524C137.953 130.213 133.687 129.661 129.827 128.252C127.179 127.286 124.624 125.97 122.198 124.386C119.785 122.802 117.528 120.939 115.419 118.884C118.02 118.714 120.653 118.603 123.299 118.657C125.945 118.686 128.612 118.831 131.245 119.205C136.185 119.804 141.719 121.646 145.607 125.13C146.373 125.817 146.617 126.424 146.528 126.95Z" fill="#064CA1"/>
<path d="M148.689 20.8311H0.914062V0H142.757L148.689 20.8311Z" fill="#064CA1"/>
<path d="M72.2225 198.847C72.2225 203.267 71.0239 206.681 68.6252 209.089C66.2264 211.497 62.8203 212.701 58.4052 212.701H55.6416V225.826H45.8086V186.264H58.406C63.0031 186.264 66.4555 187.355 68.7625 189.538C71.0694 191.721 72.2225 194.824 72.2225 198.847ZM55.6424 203.988H57.435C58.912 203.988 60.0863 203.538 60.9579 202.635C61.8296 201.733 62.265 200.488 62.265 198.9C62.265 196.23 60.9041 194.895 58.1822 194.895H55.6424V203.988Z" fill="#A4A9AD"/>
<path d="M108.919 205.206C108.919 211.808 107.246 216.896 103.902 220.468C100.559 224.04 95.8567 225.826 89.7993 225.826H78.0234V186.264H90.6208C96.4628 186.264 100.973 187.887 104.151 191.134C107.329 194.382 108.919 199.073 108.919 205.206ZM98.7121 205.585C98.7121 201.959 98.0521 199.271 96.7329 197.521C95.4137 195.771 93.4095 194.896 90.7202 194.896H87.858V217.058H90.0488C93.037 217.058 95.2271 216.116 96.6214 214.23C98.015 212.346 98.7121 209.464 98.7121 205.585Z" fill="#A4A9AD"/>
<path d="M125.126 225.826H115.441V186.264H136.952V194.842H125.126V202.391H136.03V210.969H125.126V225.826Z" fill="#A4A9AD"/>
<path d="M142.758 41.6614H181.086L142.758 0V41.6614Z" fill="#D1D3D3"/>
</svg>
