<svg width="120" height="82" viewBox="0 0 120 82" fill="none" xmlns="http://www.w3.org/2000/svg">
<path fill-rule="evenodd" clip-rule="evenodd" d="M-12.7541 -17.7817C-23.7335 -14.6505 -39.467 -7.10311 -39.2937 -5.05078C-39.2422 -4.44088 -38.9039 -2.27901 -38.542 -0.246214C-35.5687 16.4584 -51.1969 32.173 -68.0732 29.4481C-70.1876 29.107 -72.4104 28.7819 -73.0125 28.7262C-74.3687 28.6007 -77.6998 34.2556 -81.471 43.0857C-83.8865 48.7411 -87 58.2467 -87 59.9656C-87 60.3576 -85.9306 61.2802 -84.6241 62.015C-81.028 64.0389 -76.5506 68.9299 -74.594 72.9724C-69.7659 82.9487 -71.4084 94.2554 -78.8272 102.108C-80.5477 103.93 -83.091 106.086 -84.478 106.9C-86.2181 107.921 -86.997 108.775 -86.9911 109.656C-86.9639 113.699 -76.7984 138.153 -74.2729 140.251C-73.6986 140.728 -72.8486 140.738 -71.2186 140.284C-67.4042 139.224 -60.17 139.51 -56.1013 140.882C-48.501 143.446 -42.241 149.674 -39.6314 157.268C-38.2882 161.176 -38.0357 168.293 -39.0997 172.249C-39.7142 174.533 -39.6699 174.913 -38.7016 175.664C-36.3666 177.474 -21.9467 184.037 -16.6158 185.714C-7.26593 188.657 -7.72727 188.679 -5.67371 185.176C-0.720795 176.724 10.5572 171.549 20.359 173.23C28.2012 174.575 35.9588 179.824 39.2728 186.031C40.3315 188.014 40.6302 188.199 42.2301 187.869C47.2534 186.832 57.8832 182.802 64.7105 179.344C70.9516 176.183 72.3741 175.23 72.2635 174.278C72.1884 173.633 71.8394 171.333 71.4875 169.167C69.496 156.905 77.3394 144.619 89.7572 140.552C92.7169 139.583 98.531 139.516 105.817 140.366C107.17 140.523 107.651 139.833 111.465 132.248C115.403 124.416 118.842 115.38 119.73 110.529C120.112 108.438 120.032 108.301 117.738 107.129C112.082 104.241 106.68 96.6293 105.192 89.452C103.167 79.6896 107.99 68.2602 116.397 62.8925C118.372 61.6319 119.993 60.2321 120 59.7815C120.007 59.3308 118.805 55.334 117.329 50.8995C114 40.8972 107.741 28.5764 106.064 28.7262C105.44 28.7819 103.2 29.107 101.086 29.4481C83.6504 32.2631 68.1073 16.0256 71.6732 -1.27771C72.5172 -5.37408 72.5119 -5.77851 71.6064 -6.49084C69.302 -8.30455 55.9385 -14.426 50.2196 -16.2877C40.2546 -19.5326 40.7562 -19.5444 38.6861 -16.0124C32.177 -4.90511 17.1006 -0.592611 4.93124 -6.35584C0.845993 -8.29093 -4.17849 -12.8752 -6.01794 -16.3463C-6.80341 -17.829 -7.71249 -19.0228 -8.03838 -18.9997C-8.36428 -18.9766 -10.4865 -18.4283 -12.7541 -17.7817ZM31.2354 13.5138C34.2945 14.1414 37.0028 14.8668 37.2541 15.1261C37.7557 15.6437 31.2431 29.5623 27.1981 36.6188C23.9409 42.3023 16.9025 53.1744 16.4725 53.1881C16.0466 53.2017 9.69608 43.4931 6.50276 37.9469C2.84515 31.5945 -4.78947 15.7858 -4.45826 15.2499C-4.09096 14.6542 3.31535 13.0022 8.58589 12.3396C14.2775 11.6237 24.643 12.1613 31.2354 13.5138ZM-14.2724 26.1084C-9.49753 34.528 -1.93625 45.6242 4.57104 53.7589L10.4662 61.1292L8.01513 64.0436L5.5641 66.9581L-6.56091 54.5559C-13.2297 47.7345 -21.3138 39.3094 -24.5254 35.8336C-29.505 30.444 -30.2532 29.3794 -29.6085 28.6013C-28.7254 27.5361 -18.5345 20.6312 -17.8455 20.6312C-17.5888 20.6312 -15.9812 23.0957 -14.2724 26.1084ZM56.5104 24.1372C59.4341 26.0652 62.1755 28.0642 62.6019 28.5788C63.4885 29.6476 60.132 33.4248 39.193 54.9218L27.4211 67.0073L24.9073 64.0016L22.3936 60.9959L25.5455 57.2454C32.856 48.5458 42.9133 34.0069 48.1075 24.6281C49.3253 22.4295 50.5177 20.6312 50.7579 20.6312C50.9986 20.6312 53.5868 22.2086 56.5104 24.1372ZM-19.5731 55.9249C-12.2537 62.8375 -5.12601 69.6665 -3.73371 71.1007L-1.20225 73.7084L-4.06374 76.1237L-6.92584 78.5396L-12.8056 73.8197C-23.2219 65.46 -33.1034 58.7985 -46.7491 50.9374C-47.757 50.3571 -46.3445 47.6623 -41.7796 41.4556L-39.0222 37.7059L-35.9519 40.5312C-34.2627 42.085 -26.8925 49.0123 -19.5731 55.9249ZM77.1377 44.961C78.578 47.1069 79.9093 49.2605 80.0957 49.746C80.3399 50.3849 78.9092 51.4928 74.9381 53.7399C66.6901 58.4071 55.5452 66.0261 47.2812 72.6467L39.9075 78.555L36.9921 76.1119L34.0774 73.6682L42.9772 64.991C47.8721 60.2185 56.362 52.14 61.8425 47.0382L71.8081 37.7628L73.1631 39.4113C73.9089 40.3181 75.6969 42.8157 77.1377 44.961ZM-34.4443 72.3015C-30.7494 74.3017 -24.7957 77.8451 -21.2138 80.1763L-14.7012 84.4148L-16.6939 85.9283C-20.9956 89.1962 -32.176 95.628 -41.753 100.344C-47.2832 103.068 -52.0995 105.298 -52.4561 105.301C-53.3155 105.308 -54.9811 97.5589 -55.6654 90.3669C-56.4225 82.411 -55.2248 70.6056 -52.9926 64.027C-52.7057 63.1809 -44.6748 66.7639 -34.4443 72.3015ZM87.276 68.8902C88.8233 75.5944 88.8345 93.549 87.2961 100.113C86.7065 102.631 85.9677 104.849 85.6548 105.043C84.1336 105.984 47.9005 86.3641 47.8697 84.5817C47.8402 82.8734 84.702 62.5692 85.766 63.7073C85.9949 63.9524 86.6745 66.2849 87.276 68.8902ZM19.098 70.5186L21.1959 73.0352L18.8513 75.3948L16.5062 77.7551L14.0108 75.2569L11.5154 72.7586L13.8351 70.38C15.1109 69.072 16.3447 68.002 16.5772 68.002C16.8096 68.002 17.944 69.1342 19.098 70.5186ZM7.34796 82.2227L9.66769 84.6013L7.23322 87.0385L4.79874 89.4751L2.22411 87.0646L-0.350533 84.6534L1.98753 82.2493C3.27337 80.9265 4.4835 79.8447 4.67691 79.8447C4.87032 79.8447 6.07217 80.9147 7.34796 82.2227ZM32.8655 84.1418C33.0956 84.5142 32.1386 85.7761 30.6575 87.0527L28.0445 89.3058L25.6946 86.9538L23.3447 84.6013L25.6396 82.2487L27.9339 79.8962L30.1968 81.6898C31.4412 82.6769 32.6419 83.78 32.8655 84.1418ZM-10.5438 104.739C-15.7381 109.799 -24.1954 117.897 -29.3388 122.733L-38.6904 131.527L-40.3779 129.519C-41.3059 128.415 -43.3145 125.535 -44.8416 123.119C-47.1016 119.544 -47.4577 118.635 -46.7556 118.23C-32.1961 109.839 -23.0462 103.675 -12.818 95.368L-6.95068 90.6031L-4.0253 93.0694L-1.10052 95.5362L-10.5438 104.739ZM49.9239 98.604C57.1084 104.204 68.7981 112.08 75.6526 115.94C78.0924 117.314 80.1891 118.537 80.3127 118.659C80.5984 118.941 72.8674 130.592 72.0642 131.088C71.4319 131.48 62.3961 123.16 44.7237 105.912L34.12 95.5634L36.9702 93.0877L39.8211 90.6114L41.6198 92.0722C42.6087 92.8752 46.3455 95.8145 49.9239 98.604ZM19.011 93.9078L21.164 96.1283L18.8395 98.7929L16.5157 101.458L14.0753 98.8895L11.6355 96.3208L13.8949 94.0044C15.1381 92.7301 16.3128 91.6873 16.5062 91.6873C16.6996 91.6873 17.8263 92.6869 19.011 93.9078ZM8.74619 110.043C0.0918808 120.528 -9.76605 134.715 -14.8071 143.943C-16.1858 146.467 -17.5095 148.532 -17.7484 148.532C-18.3784 148.532 -28.6947 141.665 -29.4642 140.733C-30.1857 139.859 -25.929 135.056 -5.78136 114.008L5.44404 102.282L7.95066 105.126L10.4573 107.971L8.74619 110.043ZM52.6689 128.696L63.2194 139.946L61.5988 141.303C59.5239 143.041 52.4619 147.797 51.2866 148.249C50.6283 148.502 49.556 147.121 47.2765 143.086C42.5791 134.77 34.948 123.564 28.3952 115.358L22.5261 108.009L24.973 105.084L27.4199 102.158L34.7688 109.801C38.8115 114.005 46.866 122.508 52.6689 128.696ZM20.2182 121.442C21.9755 124.129 24.5584 128.303 25.9578 130.719C28.9192 135.83 37.1838 152.669 37.198 153.622C37.2104 154.482 29.4711 156.149 22.2789 156.836C13.2454 157.697 -4.19505 155.51 -4.19505 153.515C-4.19505 152.319 5.45409 133.242 9.10698 127.215C13.5861 119.825 15.8526 116.557 16.4973 116.557C16.7865 116.557 18.461 118.755 20.2182 121.442Z" fill="#E0E0E0" fill-opacity="0.7"/>
</svg>
