<svg width="85" height="82" viewBox="0 0 85 82" fill="none" xmlns="http://www.w3.org/2000/svg">
<path fill-rule="evenodd" clip-rule="evenodd" d="M70.6488 -18.7904C65.8354 -17.9142 61.3226 -15.9316 57.3664 -12.9558L54.9624 -11.1468L55.8831 -10.0416C58.3993 -7.01996 70.9565 6.50409 77.1951 12.9115C84.5146 20.4293 87.2761 23.9927 89.3939 28.6526L90.5054 31.0978L91.2036 30.223C91.5877 29.7418 93.3401 27.2053 95.0981 24.5859C100.453 16.6076 104.408 7.67051 105.567 0.934605L106.02 -1.70595L103.697 -3.85238C92.923 -13.8052 91.2782 -15.0787 86.9261 -16.8322C85.7741 -17.2966 83.8733 -17.9371 82.702 -18.2563C80.2518 -18.9232 73.1159 -19.2395 70.6488 -18.7904ZM35.921 6.65687C32.0746 10.2112 28.6291 13.41 28.2644 13.7652C27.6342 14.3792 27.6292 14.5449 28.1629 17.1194C29.9055 25.5265 34.7651 33.3523 43.9905 42.6082C50.2456 48.884 53.5082 51.5578 60.6674 56.2775C63.5276 58.1627 66.5577 60.2641 67.4009 60.9468C68.2444 61.6294 68.9968 62.1246 69.0732 62.0477C69.15 61.9708 69.7199 60.633 70.34 59.0744C70.9601 57.5162 72.2641 54.6985 73.2378 52.8129C76.9228 45.6784 77.0394 40.4582 73.6581 34.0346C72.5908 32.0077 70.9931 30.1353 65.6884 24.6972C59.7112 18.5695 50.8467 9.07201 45.0664 2.60266L42.9146 0.194321L35.921 6.65687ZM118.956 14.0318C117.524 18.0382 113.887 25.5162 111.246 29.8849C106.872 37.1199 102.28 43.1277 95.6587 50.2794C89.678 56.7387 86.6238 61.6491 84.9041 67.57C83.5721 72.1559 83.4301 75.0812 83.5516 95.4671L83.6621 113.999L105.07 113.881C126.153 113.765 126.519 113.751 129.154 112.948C133.747 111.551 137.845 109.187 141.251 105.97C145.888 101.591 148.388 97.4758 150.069 91.4594C150.787 88.8897 150.835 87.7555 150.96 70.5107C151.124 48.0134 150.92 46.1132 147.609 39.3583C145.714 35.4919 143.646 33.2321 132.871 23.2602C127.382 18.1806 122.231 13.3974 121.423 12.6314L119.954 11.2388L118.956 14.0318ZM10.0876 30.6906C4.74099 35.8665 1.93786 40.7365 0.623432 47.1336C-0.180286 51.0451 -0.218663 86.1529 0.576804 89.8823C2.96142 101.063 10.2286 109.121 21.2167 112.771L24.2651 113.783L44.9768 113.892L65.6884 114V100.821C65.6884 90.1402 65.5844 87.2417 65.1393 85.5375C63.6488 79.8285 59.8511 75.4845 51.4287 69.8552C34.5108 58.547 22.5304 45.7199 16.0164 31.9404C14.8328 29.4366 13.7838 27.3867 13.6852 27.3849C13.5866 27.3832 11.9676 28.8709 10.0876 30.6906Z" fill="#E9E9E1"/>
</svg>
