<svg width="553" height="613" viewBox="0 0 553 613" fill="none" xmlns="http://www.w3.org/2000/svg">
<g clip-path="url(#clip0_2149_118)">
<path fill-rule="evenodd" clip-rule="evenodd" d="M71.9907 -132.591C32.2128 -121.26 -24.7893 -93.9466 -24.1614 -86.5194C-23.975 -84.3123 -22.7493 -76.4887 -21.4379 -69.1323C-10.6657 -8.68015 -67.2864 48.1891 -128.429 38.3277C-136.089 37.0934 -144.142 35.917 -146.324 35.7156C-151.237 35.2613 -163.306 55.7256 -176.969 87.6807C-185.72 108.147 -197 142.546 -197 148.767C-197 150.186 -193.126 153.524 -188.392 156.184C-175.364 163.508 -159.142 181.208 -152.054 195.837C-134.561 231.94 -140.512 272.858 -167.39 301.276C-173.624 307.868 -182.838 315.672 -187.863 318.616C-194.167 322.311 -196.989 325.403 -196.968 328.589C-196.869 343.223 -160.04 431.716 -150.89 439.311C-148.809 441.038 -145.73 441.072 -139.824 439.431C-126.005 435.595 -99.7957 436.63 -85.055 441.595C-57.5193 450.871 -34.8393 473.41 -25.385 500.892C-20.5186 515.035 -19.6036 540.79 -23.4586 555.106C-25.685 563.374 -25.5243 564.747 -22.0164 567.464C-13.5564 574.017 38.6864 597.766 58 603.837C91.8743 614.485 90.2029 614.566 97.6429 601.887C115.587 571.302 156.447 552.574 191.959 558.657C220.371 563.524 248.476 582.522 260.483 604.981C264.319 612.158 265.401 612.829 271.197 611.635C289.396 607.883 327.908 593.296 352.643 580.784C375.254 569.346 380.408 565.894 380.007 562.45C379.735 560.116 378.471 551.794 377.196 543.953C369.981 499.579 398.397 455.119 443.386 440.401C454.109 436.894 475.174 436.649 501.571 439.726C506.472 440.296 508.214 437.798 522.031 410.35C536.301 382.004 548.759 349.304 551.976 331.75C553.362 324.181 553.073 323.689 544.759 319.446C524.269 308.995 504.698 281.449 499.306 255.475C491.971 220.146 509.442 178.784 539.903 159.359C547.058 154.797 552.931 149.731 552.955 148.101C552.981 146.47 548.624 132.006 543.278 115.958C531.216 79.7607 508.54 35.1734 502.465 35.7156C500.206 35.917 492.089 37.0934 484.429 38.3277C421.261 48.5149 364.949 -10.2466 377.869 -72.8651C380.926 -87.6894 380.907 -89.153 377.626 -91.7309C369.278 -98.2944 320.862 -120.447 300.143 -127.185C264.04 -138.927 265.857 -138.97 258.357 -126.188C234.775 -85.9923 180.154 -70.3859 136.064 -91.2423C121.264 -98.2451 103.06 -114.835 96.3957 -127.397C93.55 -132.762 90.2564 -137.082 89.0757 -136.999C87.895 -136.915 80.2064 -134.931 71.9907 -132.591ZM231.364 -19.3366C242.446 -17.0651 252.259 -14.4401 253.169 -13.5016C254.986 -11.6287 231.391 38.7413 216.736 64.2777C204.936 84.8457 179.436 124.191 177.878 124.24C176.335 124.289 153.327 89.155 141.758 69.0841C128.506 46.0956 100.846 -11.1144 102.046 -13.0537C103.377 -15.2094 130.21 -21.188 149.305 -23.5859C169.926 -26.1766 207.479 -24.2309 231.364 -19.3366ZM66.49 26.242C83.7893 56.7113 111.184 96.8671 134.759 126.306L156.117 152.978L147.237 163.525L138.357 174.072L94.4286 129.19C70.2679 104.504 40.9793 74.0148 29.3436 61.4363C11.3029 41.932 8.59213 38.0791 10.9278 35.2634C14.1271 31.4084 51.0486 6.42058 53.545 6.42058C54.475 6.42058 60.2993 15.3391 66.49 26.242ZM322.934 19.1084C333.526 26.0856 343.459 33.3199 345.004 35.182C348.216 39.0499 336.055 52.7191 260.194 130.514L217.544 174.25L208.437 163.373L199.33 152.496L210.749 138.923C237.235 107.44 273.672 54.8256 292.491 20.8849C296.903 12.9284 301.223 6.42058 302.093 6.42058C302.965 6.42058 312.342 12.1291 322.934 19.1084ZM47.2857 134.144C73.8036 159.16 99.6271 183.874 104.671 189.064L113.843 198.501L103.476 207.241L93.1064 215.984L71.8043 198.904C34.0664 168.651 -1.73428 144.544 -51.1721 116.095C-54.8236 113.995 -49.7064 104.243 -33.1679 81.7814L-23.1779 68.212L-12.0543 78.4364C-5.9343 84.0593 20.7679 109.129 47.2857 134.144ZM397.666 94.4671C402.884 102.233 407.708 110.026 408.383 111.784C409.268 114.096 404.084 118.105 389.697 126.237C359.815 143.127 319.437 170.699 289.497 194.659L262.782 216.04L252.22 207.199L241.66 198.355L273.904 166.954C291.638 149.682 322.396 120.447 342.252 101.984L378.357 68.4177L383.266 74.3834C385.969 77.665 392.446 86.7036 397.666 94.4671ZM-6.59215 193.409C6.79428 200.648 28.3643 213.471 41.3414 221.907L64.9364 237.246L57.7171 242.723C42.1321 254.549 1.6257 277.825 -33.0714 294.893C-53.1071 304.748 -70.5564 312.82 -71.8486 312.831C-74.9622 312.856 -80.9964 284.813 -83.4757 258.786C-86.2186 229.994 -81.8793 187.272 -73.7921 163.465C-72.7529 160.403 -43.6572 173.369 -6.59215 193.409ZM434.397 181.064C440.003 205.326 440.044 270.301 434.47 294.057C432.334 303.169 429.657 311.196 428.524 311.896C423.012 315.304 291.741 244.3 291.629 237.85C291.522 231.668 425.071 158.189 428.926 162.308C429.756 163.195 432.218 171.636 434.397 181.064ZM187.39 186.957L194.991 196.064L186.496 204.604L178 213.145L168.959 204.104L159.919 195.064L168.323 186.456C172.945 181.722 177.415 177.85 178.257 177.85C179.099 177.85 183.209 181.947 187.39 186.957ZM144.82 229.313L153.224 237.921L144.404 246.741L135.584 255.559L126.256 246.835L116.929 238.109L125.399 229.409C130.058 224.622 134.442 220.707 135.143 220.707C135.844 220.707 140.198 224.579 144.82 229.313ZM237.269 236.258C238.103 237.606 234.636 242.172 229.27 246.792L219.803 254.946L211.289 246.434L202.776 237.921L211.09 229.407L219.402 220.894L227.601 227.384C232.109 230.956 236.459 234.949 237.269 236.258ZM79.9986 310.795C61.18 329.11 30.5393 358.416 11.905 375.916L-21.9757 407.738L-28.0893 400.474C-31.4514 396.477 -38.7286 386.054 -44.2614 377.311C-52.4493 364.373 -53.7393 361.084 -51.1957 359.62C1.55284 329.251 34.7029 306.946 71.7593 276.884L93.0164 259.641L103.615 268.566L114.211 277.493L79.9986 310.795ZM299.071 288.595C325.101 308.86 367.452 337.364 392.286 351.331C401.125 356.303 408.721 360.73 409.169 361.171C410.204 362.194 382.195 404.354 379.285 406.152C376.994 407.569 344.258 377.459 280.231 315.042L241.814 277.591L252.141 268.632L262.469 259.671L268.986 264.957C272.569 267.863 286.107 278.5 299.071 288.595ZM187.075 271.6L194.875 279.636L186.454 289.279L178.034 298.921L169.193 289.628L160.354 280.332L168.539 271.949C173.044 267.338 177.299 263.564 178 263.564C178.701 263.564 182.783 267.181 187.075 271.6ZM149.886 329.993C118.531 367.934 82.8164 419.277 64.5529 452.671C59.5578 461.804 54.7621 469.279 53.8964 469.279C51.6143 469.279 14.2386 444.426 11.4507 441.055C8.83643 437.892 24.2585 420.509 97.2528 344.341L137.922 301.904L147.004 312.199L156.085 322.493L149.886 329.993ZM309.016 397.493L347.241 438.207L341.369 443.116C333.852 449.406 308.266 466.619 304.009 468.254C301.624 469.169 297.739 464.172 289.48 449.569C272.461 419.476 244.814 378.923 221.074 349.227L199.81 322.632L208.675 312.044L217.54 301.456L244.165 329.116C258.811 344.331 287.993 375.1 309.016 397.493ZM191.449 371.243C197.815 380.965 207.173 396.072 212.243 404.815C222.972 423.31 252.914 484.251 252.966 487.699C253.011 490.812 224.971 496.844 198.914 499.328C166.186 502.446 103 494.532 103 487.313C103 482.984 137.959 413.946 151.193 392.136C167.421 365.393 175.632 353.564 177.968 353.564C179.016 353.564 185.082 361.521 191.449 371.243Z" fill="#E9E9E1" fill-opacity="0.5"/>
</g>
<defs>
<clipPath id="clip0_2149_118">
<rect width="553" height="613" fill="white"/>
</clipPath>
</defs>
</svg>
