<svg width="541" height="495" viewBox="0 0 541 495" fill="none" xmlns="http://www.w3.org/2000/svg">
<g clip-path="url(#clip0_2164_244)">
<path fill-rule="evenodd" clip-rule="evenodd" d="M250.256 0.838231C231.162 4.34322 213.26 12.2735 197.566 24.1767L188.03 31.4128L191.682 35.8337C201.664 47.9201 251.476 102.016 276.224 127.646C305.26 157.717 316.215 171.971 324.616 190.61L329.025 200.391L331.795 196.892C333.318 194.967 340.27 184.821 347.244 174.344C368.486 142.43 384.177 106.682 388.771 79.7384L390.57 69.1762L381.354 60.5905C338.615 20.779 332.09 15.6854 314.826 8.67115C310.256 6.81346 302.716 4.25162 298.07 2.975C288.35 0.307258 260.042 -0.957916 250.256 0.838231ZM112.495 102.627C97.2362 116.845 83.5684 129.64 82.1215 131.061C79.6218 133.517 79.6019 134.18 81.7189 144.477C88.6318 178.106 107.909 209.409 144.505 246.433C169.319 271.536 182.261 282.231 210.661 301.11C222.007 308.651 234.027 317.056 237.372 319.787C240.718 322.518 243.703 324.499 244.006 324.191C244.31 323.883 246.571 318.532 249.031 312.298C251.491 306.065 256.663 294.794 260.526 287.252C275.144 258.714 275.607 237.833 262.193 212.138C257.96 204.031 251.621 196.541 230.578 174.789C206.868 150.278 171.703 112.288 148.773 86.4106L140.237 76.7773L112.495 102.627ZM441.884 132.127C436.203 148.153 421.776 178.065 411.299 195.54C393.949 224.48 375.734 248.511 349.467 277.117C325.742 302.955 313.627 322.596 306.805 346.28C301.521 364.623 300.958 376.325 301.44 457.869L301.878 531.996L386.802 531.523C470.433 531.06 471.887 531.002 482.34 527.794C500.56 522.202 516.814 512.746 530.329 499.878C548.72 482.365 558.64 465.903 565.307 441.838C568.154 431.559 568.346 427.022 568.842 358.043C569.493 268.054 568.682 260.453 555.549 233.433C548.033 217.968 539.827 208.928 497.085 169.041C475.312 148.722 454.876 129.59 451.672 126.526L445.845 120.955L441.884 132.127ZM10.0165 198.763C-11.193 219.466 -22.3127 238.946 -27.5269 264.534C-30.7152 280.18 -30.8674 420.612 -27.7119 435.529C-18.2524 480.251 10.5756 512.486 54.1641 527.082L66.257 531.131L148.418 531.566L230.578 532V479.282C230.578 436.561 230.166 424.967 228.4 418.15C222.488 395.314 207.423 377.938 174.012 355.421C106.901 310.188 59.3755 258.88 33.5351 203.762C28.8402 193.746 24.6788 185.547 24.2876 185.54C23.8963 185.533 17.4743 191.484 10.0165 198.763Z" fill="#E9E9E1" fill-opacity="0.8"/>
</g>
<defs>
<clipPath id="clip0_2164_244">
<rect width="541" height="495" fill="white"/>
</clipPath>
</defs>
</svg>
